<?xml version="1.0" encoding="UTF-8" standalone="no"?>
<!DOCTYPE svg PUBLIC "-//W3C//DTD SVG 1.1//EN" "http://www.w3.org/Graphics/SVG/1.1/DTD/svg11.dtd">
<svg width="100%" height="100%" viewBox="0 0 644 513" version="1.1" xmlns="http://www.w3.org/2000/svg" xmlns:xlink="http://www.w3.org/1999/xlink" xml:space="preserve" xmlns:serif="http://www.serif.com/" style="fill-rule:evenodd;clip-rule:evenodd;stroke-linejoin:round;stroke-miterlimit:2;">
    <g transform="matrix(1.5,0,0,1.5,-208,-207)">
        <path d="M293.225,278.31C289.164,282.37 284.815,284.087 284.535,284.53C284.462,284.646 283.844,285.626 284.661,286.245C284.829,286.373 288.77,287.025 289.587,287.217C291.948,287.772 296.758,290.851 298.51,293.492C302.111,298.92 303.344,304.556 300.029,312.209C299.086,313.617 292.492,323.461 280.513,320.448C274.188,318.858 272.358,315.867 271.781,315.255C269.825,311.511 269.738,311.556 268.522,307.493C267.678,304.676 266.459,304.58 261.723,301.19C257.387,298.085 257.517,297.145 255.627,297.785C255.517,297.822 249.487,302.384 248.351,303.355C246.667,304.795 246.62,304.715 244.739,305.894C242.157,307.51 244.85,308.899 241.296,316.345C237.914,321.576 233.652,323.853 226.505,324.869C225.671,324.77 220.344,324.143 216.609,321.35C216.058,320.938 212.917,318.588 211.307,314.579C206.669,303.03 215.654,294.715 215.67,294.697C216.306,294.038 217.334,292.883 219.669,291.919C226.134,289.251 230.512,290.766 230.666,289.585C230.714,289.223 230.732,288.782 230.496,288.503C230.256,288.218 227.705,287.687 227.457,287.636C207.063,283.389 201.734,269.233 199.722,266.353C195.069,259.688 195.861,253.651 193.187,249.702C191.747,247.575 193.015,246.936 193.118,244.478C193.38,238.259 193.111,238.218 195.014,230.388C195.262,229.368 196.553,224.057 200.203,218.325C200.696,217.551 203.689,212.851 207.4,209.389C217.484,199.985 226.426,197.178 227.591,196.774C235.358,194.078 238.222,193.471 240.232,195.739C242.375,198.156 247.943,215.197 251.489,228.503C254.248,238.857 253.683,239.839 254.478,240.524C254.904,240.89 255.376,241.297 261.507,240.566C262.631,240.432 274.515,239.015 275.556,238.869C280.174,238.221 278.785,232.997 284.627,224.585C285.235,223.71 287.888,219.89 294.794,215.985C305.405,209.983 311.646,208.9 315.843,212.034C319.257,214.583 319.796,218.049 318.784,222.578C317.874,226.652 311.385,234.003 310.396,236.448C309.227,239.338 313.516,241.322 312.357,245.461C309.709,254.915 306.461,255.012 304.798,255.948C302.735,257.108 303.521,260.226 302.412,263.471C299.502,271.986 296.885,274.51 293.225,278.31ZM297.42,237.128C297.803,236.957 298.23,236.896 298.614,236.724C300.818,235.741 300.318,233.511 307.915,222.72C308.035,222.551 309.639,220.271 307.583,220.152C307.372,220.14 304.236,221.144 301.361,223.308C298.229,225.664 295.263,227.246 293.416,234.481C292.613,237.626 294.194,237.487 297.42,237.128Z" style="fill:rgb(97,70,56);"/>
        <path d="M493.571,279.516C493.413,279.605 493.412,279.592 491.577,280.615C490.73,281.087 487.736,282.968 484.583,283.798C482.572,284.328 482.373,284.01 481.846,284.78C481.537,285.23 481.324,285.541 483.984,291.262C485.463,294.445 485.874,295.218 488.504,295.226C490.539,295.233 493.794,295.004 496.501,295.498C496.66,295.527 498.139,295.797 498.508,295.748C498.84,295.705 499.126,295.466 499.458,295.423C500.149,294.629 500.215,294.699 500.837,293.838C502.099,292.088 502.987,291.558 502.679,286.588C502.658,286.243 502.318,285.844 502.519,285.564C502.716,285.291 503.321,285.696 503.518,285.424C503.741,285.598 504.038,285.661 504.261,285.834C505.53,286.819 505.783,289.141 505.817,289.455C506.275,293.658 503.851,296.36 503.091,297.276C502.964,297.628 501.939,298.263 503.338,299.65C503.916,300.223 507.504,303.783 508.269,308.544C509.352,315.281 505.847,318.889 505.427,319.445C499.462,327.35 485.366,333.068 477.089,323.879C475.003,321.563 474.583,322.023 471.55,322.707C464.61,324.272 459.527,323.771 458.484,323.669C453.36,323.164 453.36,323.168 448.419,321.752C445.998,321.058 445.297,322.838 445.063,323.114C443.06,325.474 442.856,325.239 440.372,327.108C432.356,329.578 427.526,327.341 424.591,326.276C418.867,322.808 417.021,320.533 414.695,316.406C413.913,314.486 413.786,314.537 413.418,312.514C412.543,307.704 414.611,303.069 416.749,300.731C423.29,293.579 431.017,296.441 432.403,296.145C434.037,295.795 434.369,291.339 436.789,287.627C436.89,287.471 438.075,285.654 436.58,285.303C436.41,285.263 430.062,286.072 425.623,284.215C413.544,279.161 414.729,265.343 420.539,261.553C426.059,257.952 429.661,259.829 431.552,260.295C431.715,260.335 433.419,260.755 433.489,259.498C433.663,256.379 432.28,256.237 434.415,248.475C435.084,246.043 434.181,245.987 432.701,245.136C432.082,244.78 428.606,242.778 426.91,238.341C426.438,237.106 423.515,229.457 430.066,222.117C438.972,212.139 450.464,217.093 453.515,220.485C456.308,223.592 456.028,223.782 456.835,225.324C458.168,227.872 460.45,226.019 465.52,225.882C466.563,225.854 473.265,225.672 478.449,227.637C487.168,230.941 489.968,233.806 490.64,234.326C492.732,235.945 492.882,234.543 495.391,233.291C510.135,225.934 523.673,241.261 517.774,254.624C513.479,264.355 505.649,263.884 503.444,264.144C501.197,264.409 501.527,266.513 500.389,269.454C498.502,274.331 494.948,277.667 494.283,278.359C493.749,278.915 493.893,278.993 493.571,279.516Z" style="fill:rgb(102,73,58);"/>
        <path d="M340.69,401.68C342.681,399.561 343.072,399.409 343.496,399.396C344.935,399.35 347.555,403.001 342.608,408.596C335.932,416.146 331.409,415.148 330.793,418.551C329.291,426.852 330.541,448.397 309.517,449.753C290.303,450.992 286.337,435.584 293.216,427.273C299.551,419.618 315.162,416.487 316.319,414.398C316.76,413.601 316.909,409.651 316.788,409.293C316.725,409.106 315.902,408.683 315.61,408.753C315.538,408.77 314.419,410.165 314.319,410.29C309.146,416.738 296.671,417.257 291.096,411.936C289.646,410.552 289.254,410.454 287.765,411.801C280.398,418.467 268.332,420.395 262.682,413.357C256.3,405.406 262.63,387.705 258.875,383.205C255.581,379.257 249.418,384.388 247.324,389.428C245.264,394.388 245.482,394.788 245.493,406.5C245.501,414.505 246.253,416.515 242.447,417.243C238.65,417.97 236.667,417.72 235.497,417.52C229.531,416.498 231.062,413.939 230.32,405.513C229.269,393.573 229.85,393.559 229.61,378.497C229.507,372.045 228.669,368.98 234.512,368.875C238.736,368.798 245.429,367.898 244.081,379.598C243.999,380.308 243.813,380.351 244.147,380.775C244.634,381.394 244.657,381.63 245.389,381.314C245.57,381.235 246.728,378.965 246.834,378.756C247.375,377.695 252.895,369.572 261.531,368.775C269.739,368.017 272.581,371.572 274.276,375.592C276.419,380.675 274.4,394.382 274.918,400.472C274.982,401.228 275.615,408.666 282.425,406.273C287.464,404.502 286.895,402.545 286.693,400.479C285.978,393.193 286.514,385.675 286.792,377.511C286.978,372.028 286.082,369.199 292.503,369.297C301.026,369.428 301.89,372.772 302.1,373.586C302.368,374.623 301.27,390.121 301.513,396.5C302,409.278 311.784,405.12 314.511,400.507C317.814,394.919 316.822,394.522 317.171,377.493C317.27,372.665 316.59,370.449 322.496,370.305C331.771,370.079 331.79,373.522 332.013,375.544C332.075,376.101 331.737,401.933 331.671,404.503C331.601,407.229 331.185,409.031 333.638,407.863C335.574,406.941 340.167,402.218 340.69,401.68ZM315.909,427.559C316.211,425.617 316.208,425.629 316.235,425.461C316.385,424.555 316.41,424.577 316.415,424.499C316.503,423.076 315.62,422.894 315.472,422.864C314.851,422.735 309.501,425.405 305.628,428.658C297.658,435.353 302.922,440.732 307.584,439.994C314.838,438.845 315.738,428.746 315.909,427.559Z" style="fill:rgb(100,70,56);"/>
        <path d="M349.499,146.972L348.536,147.091C340.555,147.831 325.016,151.845 324.673,151.985C324.495,152.057 323.095,152.625 322.997,153.704C322.992,153.761 322.875,171.814 322.918,172.378C323.034,173.884 324.632,177.479 325.289,178.627C327.273,182.094 334.409,179.638 334.877,182.4C335.175,184.165 332.273,186.262 330.958,187.889C328.187,191.32 331.661,197.282 329.834,198.944C328.664,200.009 326.021,197.645 323.471,196.563C318.614,194.501 314.809,201.135 312.466,198.526C311.524,197.477 313.135,192.566 312.919,190.459C312.636,187.684 308.145,184.995 307.606,183.454C306.335,179.817 313.417,181.254 316.472,179.46C317.641,178.773 319.087,174.966 319.34,174.425C320.163,172.669 320.525,172.722 320.519,169.499C320.498,159.554 320.629,154.812 320.583,154.468C320.346,152.704 318.427,153.631 317.643,153.911C309.275,156.894 307.816,157.217 306.579,157.706C300.389,160.152 295.39,162.66 294.668,162.96C290.891,164.534 291.865,162.02 291.982,161.818C292.063,161.676 308.622,149.933 330.578,144.854C340.399,142.582 340.447,142.895 348.538,141.737C350.121,141.511 358.382,140.329 368.494,140.652C380.057,141.02 381.403,141.226 382.513,141.396C393.845,143.131 393.844,143.114 400.44,144.744C409.788,147.053 415.304,149.615 418.407,150.759C420.076,151.374 427.113,153.968 438.168,160.957C441.723,163.205 438.733,163.735 438.51,163.724C438.191,163.71 431.202,160.298 422.558,157.28C421.491,156.908 421.275,156.681 420.627,157.624C420.422,157.922 420.45,161.19 420.452,161.501C420.566,175.112 419.802,175.422 420.641,177.41C422.303,181.349 422.047,181.474 423.464,183.53C424.866,185.566 432.143,184.351 432.623,186.455C433.035,188.256 431.467,188.26 428.27,192.332C425.581,195.755 429.401,200.862 427.911,202.806C426.457,204.702 423.999,201.984 420.413,200.781C417.033,199.646 412.667,203.912 410.56,203.332C408.522,202.771 410.332,197.305 410.567,195.507C410.849,193.348 409.553,192.477 406.217,188.741C406.028,188.529 403.806,186.041 406.365,185.193C406.8,185.049 410.184,184.734 410.518,184.703C415.723,184.22 415.671,182.027 417.237,178.379C418.117,176.327 418.357,176.453 418.366,176.359C418.388,176.126 417.911,176.202 417.988,173.456C418.023,172.184 418.125,168.547 418.135,157.557C418.137,155.849 417.781,155.489 412.432,153.683C405.756,151.43 403.392,151.112 401.463,150.639C396.977,149.538 396.985,149.576 392.467,148.688C385.032,147.227 385.045,147.21 377.498,146.523C376.39,146.422 374.933,146.168 374.732,147.607C374.557,148.866 374.542,148.975 374.546,163.5C374.548,169.003 374.522,168.988 374.475,174.5C374.453,177.064 374.884,176.979 375.556,178.474C376.409,180.375 376.325,180.391 376.403,180.552C377.642,183.099 382.633,181.381 383.184,183.611C384.022,187.002 377.053,187.167 374.471,200.495C373.444,205.796 375.913,213.349 378.947,217.141C387.233,227.497 400.194,226.004 402.513,226.412C407.184,227.234 404.064,232.399 399.646,236.658C391.181,244.818 382.146,245.374 380.514,245.613C371.346,246.952 359.612,242.155 353.241,234.71C342.556,222.224 344.603,208.545 347.847,201.659C354.835,186.826 363.714,185.846 367.606,183.654C369.755,182.444 366.951,180.512 370.583,177.608C372.281,176.251 372.047,175.437 372.074,172.497C372.281,149.548 372.401,149.556 372.276,147.565C372.176,145.961 370.784,146.124 369.511,146.105C355.354,145.893 354.749,146.589 349.499,146.972Z" style="fill:rgb(87,75,66);"/>
        <path d="M334.178,276.504C334.167,276.172 334.142,275.84 334.13,275.508C334.082,274.09 333.685,262.384 341.436,259.341C347.988,256.77 353.914,261.39 356.569,265.453C362.478,274.491 361.925,279.203 374.442,276.271C392.262,272.097 396.9,276.126 400.969,280.018C401.413,280.625 401.462,280.576 401.856,281.231C407.285,290.253 400.911,302.282 400.256,303.353C394.897,312.118 390.37,314.638 387.442,316.39C385.093,317.446 378.729,320.477 372.475,319.686C364.654,318.696 362.499,316.238 358.443,313.582C355.793,311.848 355.484,313.08 344.758,318.97C343.776,319.509 336.17,323.685 330.751,319.195C326.537,315.704 327.053,311.961 327.018,311.495C327.113,310.465 326.935,309.176 328.088,307.27C328.276,306.958 328.862,305.631 330.449,304.437C337.575,299.079 345.077,301.115 341.887,296.279C334.567,285.183 334.597,279.232 334.178,276.504Z" style="fill:rgb(92,75,64);"/>
        <path d="M514.139,393.484C513.091,409.468 502.401,419.653 493.437,421.117C488.23,421.968 479.132,421.993 475.627,417.365C475.09,416.657 475.255,416.403 474.525,416.337C474.2,416.307 473.781,416.314 473.572,416.565C473.473,416.684 473.568,419.655 469.486,418.555C463.378,416.91 464.361,410.641 463.523,406.5C462.348,400.692 463.142,350.168 464.418,346.472C465.809,342.444 476.888,342.887 478.59,345.422C480.163,347.765 479.437,348.465 479.052,359.478C478.806,366.503 478.482,366.471 478.103,373.488C477.975,375.856 476.997,378.541 477.752,379.164C478.675,379.924 479.296,378.517 479.354,378.387C479.666,377.68 479.389,377.523 481.495,374.495C485.021,369.426 500.484,363.108 509.236,374.693C509.844,375.498 512.654,379.218 513.78,386.45C514.182,389.034 514.144,392.921 514.139,393.484ZM478.078,396.503C478.177,401.087 477.908,410.676 485.514,411.345C488.874,411.64 494.525,409.481 496.861,402.621C500.109,393.081 498.477,382.652 492.536,380.411C488.134,378.751 484.01,381.47 482.484,383.486C477.805,389.669 478.151,392.861 478.078,396.503Z" style="fill:rgb(100,70,56);"/>
        <path d="M454.139,229.543C454.404,229.722 454.569,230.024 454.834,230.203C456.208,231.131 463.681,228.236 470.515,229.39C477.408,230.554 478.947,231.359 482.277,232.961C488.609,236.005 492.089,239.979 492.611,240.203C492.844,240.303 493.138,240.091 493.371,240.191C493.75,239.962 494.13,239.733 494.509,239.504C494.684,239.225 495.028,237.666 497.463,236.428C509.118,230.504 520.565,243.655 513.471,255.48C510.383,260.627 502.348,262.178 501.844,259.385C501.575,257.893 501.784,257.871 502.78,256.742C503.017,256.649 503.271,256.604 503.508,256.511C505.026,255.914 508.654,253.327 507.592,248.481C506.375,242.926 501.625,242.208 501.568,242.189C499.625,242.167 499.636,242.143 499.47,242.165C499.47,242.165 497.741,242.713 497.59,242.76C497.401,243.141 496.994,243.384 496.805,243.764C496.1,245.182 499.007,250.641 499.029,256.543C499.059,264.33 498.017,270.38 491.806,275.845C484.044,282.674 475.898,280.704 471.516,280.629C471.937,280.274 472.079,279.657 472.5,279.302C472.656,279.171 474.025,278.991 475.26,278.066C482.472,272.667 481.423,269.145 480.472,263.544C481.51,263.022 481.461,262.971 482.508,262.52C484.953,261.466 485.238,258.969 483.76,257.28C481.098,254.237 477.769,257.497 477.454,258.498C477.349,258.832 477.467,259.211 477.362,259.545C476.888,258.939 476.74,259.099 476.271,258.5C475.877,257.996 476.04,257.914 475.677,257.39C474.942,256.328 473.718,255.586 473.52,255.466C468.344,252.327 463.818,253.26 462.49,253.146C462.236,253.124 462.003,252.965 461.749,252.961C461.609,252.96 461.505,253.121 461.366,253.132C460.94,253.166 460.51,253.061 460.084,253.096C459.991,252.832 460.134,252.523 460.041,252.259C459.939,251.969 459.664,251.769 459.521,251.496C458.902,250.313 458.949,250.303 458.876,250.214C456.073,246.788 450.785,251.98 453.615,255.385C454.64,256.618 455.375,256.634 455.571,256.773C455.012,257.297 452.738,259.942 452.425,260.45C448.939,266.094 452.538,271.457 452.961,272.179C453.043,272.319 453.796,273.607 454.077,273.885C454.74,274.541 454.814,274.434 454.858,274.5C455.246,275.086 454.951,275.205 455.339,275.79C455.041,275.755 454.768,275.595 454.471,275.559C454.14,275.52 453.804,275.582 453.47,275.568C451.59,275.488 449.424,274.536 448.704,274.127C446.861,273.08 442.358,269.203 441.602,268.403C439.835,266.535 437.6,262.257 437.249,260.558C435.266,250.969 438.842,245.809 440.782,242.676C445.839,234.509 448.876,235.713 449.388,232.509C449.623,231.044 449.005,230.663 448.786,230.236C448.621,230.053 448.542,229.803 448.377,229.62C445.333,226.242 440.564,227.188 437.793,231.678C436.488,233.792 436.708,236.74 436.936,237.388C437.074,237.78 437.358,238.11 437.496,238.502C437.676,238.902 438.086,239.168 438.266,239.567C438.323,239.694 438.601,240.309 438.124,241.295C436.335,244.994 428.91,239.964 429.241,232.489C429.608,224.217 437.451,218.649 444.455,219.726C449.227,220.46 452.168,224.162 452.443,224.546C454.451,227.354 454.13,227.537 454.139,229.543Z" style="fill:rgb(204,161,120);"/>
        <path d="M362.126,290.227C362.135,290.172 362.638,289.558 362.418,288.519C362.404,288.45 362.332,288.108 362.105,287.696C360.815,285.352 357.775,283.817 357.452,283.592C356.501,282.931 356.714,282.755 356.12,281.765C355.134,280.121 346.935,263.626 343.513,266.513C342.594,267.287 343.398,268.377 343.492,268.506C343.819,268.949 347.078,269.544 353.382,281.564C355.128,284.892 355.836,284.997 354.636,288.547C353.621,291.551 353.674,291.555 352.707,294.571C351.556,298.162 349.089,298.585 347.172,296.889C335.904,286.922 334.78,266.152 342.511,262.522C349.923,259.041 354.774,268.935 356.766,272.348C364.983,286.421 372.619,277.853 387.498,277.879C397.952,277.897 400.553,284.669 400.754,288.49C401.267,298.268 393.63,308.488 388.145,312.002C371.074,322.939 360.887,310.462 358.463,309.581C355.503,308.506 349.375,312.839 345.309,315.158C336.694,320.072 331.583,317.487 330.629,313.468C328.848,305.958 337.55,304.545 343.418,302.285C350.981,299.372 351.433,300.71 355.547,298.562C355.69,298.532 357.338,298.187 357.338,298.187C357.512,298.124 357.581,297.887 357.753,297.819C358.023,297.713 358.332,297.758 358.612,297.684C361.793,296.842 361.539,296.035 362.126,290.227Z" style="fill:rgb(128,195,186);"/>
        <path d="M247.491,287.712C246.686,287.663 240.283,287.275 237.463,286.737C223.656,284.102 215.083,280.738 208.905,274.131C207.067,272.165 204.304,268.092 204.228,267.537C203.92,265.264 205.392,266.323 211.534,265.822C225.328,264.698 225.325,264.813 226.518,264.659C238.955,263.052 240.403,263.549 246.523,262.673C251.705,261.931 272.116,260.088 283.533,258.98C298.477,257.529 299.657,256.147 300.147,258.523C300.154,258.557 299.393,266.382 293.835,272.792C288.731,278.679 284.281,280.6 283.299,281.024C266.702,288.188 254.393,287.797 247.491,287.712Z" style="fill:rgb(250,163,153);"/>
        <path d="M165.905,417.453C165.568,412.277 165.463,412.308 165.349,409.505C164.435,386.941 166.262,360.92 166.189,360.54C166.109,360.124 165.866,359.708 165.525,359.457C165.055,359.112 162.196,359.78 161.582,359.9C153.142,361.559 147.05,364.104 144.517,364.594C139.868,365.495 137.412,357.219 140.361,352.402C141.964,349.782 149.671,348.764 150.517,348.586C159.716,346.654 159.712,346.716 160.508,346.535C171.706,343.988 195.585,341.491 200.476,342.64C200.483,342.641 203.807,342.791 203.744,347.5C203.71,349.993 201.915,352.645 201.32,353.236C199.752,354.791 191.702,354.831 187.481,355.332C181.381,356.057 181.174,356.337 180.851,356.774C180.339,357.468 180.585,357.571 180.793,367.494C181.16,385.019 181.501,384.982 182.851,402.469C184.216,420.162 184.393,420.261 183.723,421.643C182.738,423.674 173.92,423.624 173.495,423.6C166.273,423.186 166.427,420.265 165.905,417.453Z" style="fill:rgb(98,69,55);"/>
        <path d="M378.144,412.519C378.322,416.158 378.706,418.378 377.38,419.327C376.079,420.256 362.878,423.071 360.867,418.332C360.103,416.529 359.904,411.614 360.111,397.491C360.148,395.01 360.172,395.018 361.207,366.491C361.393,361.347 362.104,358.48 361.289,357.707C360.537,356.996 360.382,357.44 352.57,358.885C343.142,360.628 339.386,362.767 337.474,357.51C337.201,356.759 334.955,348.554 340.42,347.188C343.09,346.521 349.658,345.406 350.464,345.269C351.58,345.079 351.611,345.357 364.487,343.402C369.495,342.641 397.228,340.8 400.388,341.879C402.757,342.689 402.826,344.529 402.921,345.473C403.642,352.646 399.278,353.571 398.547,353.726C396.91,354.072 388.82,353.966 382.507,354.577C379.148,354.902 376.583,354.733 376.195,356.428C375.939,357.546 376.219,388.279 378.144,412.519Z" style="fill:rgb(98,69,54);"/>
        <path d="M541.495,424.064C536.682,423.992 525.249,423.358 519.715,409.416C517.485,403.797 518.557,396.637 518.722,395.536C518.901,394.346 519.713,388.923 524.934,381.842C526.426,379.818 532.638,373.911 537.446,372.355C538.446,372.032 544.253,370.153 550.535,371.298C551.977,371.561 562.877,373.547 562.15,385.469C561.803,391.154 555.889,401.363 540.46,403.132C536.277,403.612 536.044,403.16 535.1,404.176C533.272,406.145 538.655,417.472 554.253,410.012C556.826,408.781 559.952,406.713 560.43,406.397C561.588,405.631 561.481,405.426 562.426,405.226C565.196,404.638 567.069,408.964 566.124,411.351C565.109,413.914 560.735,418.791 553.556,421.633C550.806,422.721 548.471,423.624 541.495,424.064ZM536.459,387.479C535.382,389.627 533.422,395.283 534.725,396.204C536.287,397.309 549.516,394.183 550.091,384.488C550.238,382.001 547.89,378.054 542.509,380.518C538.957,382.145 536.547,387.324 536.459,387.479Z" style="fill:rgb(100,70,55);"/>
        <path d="M327.018,311.495C327.053,311.961 326.537,315.704 330.751,319.195C336.17,323.685 343.776,319.509 344.758,318.97C355.484,313.08 355.793,311.848 358.443,313.582C362.499,316.238 364.654,318.696 372.475,319.686C378.729,320.477 385.093,317.446 387.442,316.39C388.964,317.461 388.906,317.553 390.633,318.246C392.259,318.898 392.203,319.545 394.408,319.151C396.68,318.745 396.702,319.024 398.565,318.7C405.287,317.531 405.26,317.069 410.499,317.472C411.981,317.586 412.117,317.229 412.5,317.149C412.827,317.081 413.184,317.2 413.5,317.093C413.935,316.946 414.26,316.554 414.695,316.406C417.021,320.533 418.867,322.808 424.591,326.276C424.094,326.616 423.997,327.377 423.5,327.717C423.272,327.873 421.062,327.354 420.505,327.345C381.479,326.698 381.525,325.35 342.506,325.106C334.495,325.055 334.516,324.861 326.495,324.868C302.778,324.888 249.682,325.374 232.5,326.085C230.499,326.168 230.521,326.106 228.5,326.009C228.167,325.993 227.789,326.15 227.5,325.985C227.067,325.737 226.938,325.116 226.505,324.869C233.652,323.853 237.914,321.576 241.296,316.345C241.557,316.703 241.691,317.142 241.951,317.5C242.407,318.127 242.817,317.847 243.604,318.045C246.167,318.692 248.059,318.533 254.516,319.378C261.589,320.304 261.477,318.823 268.453,317.34C271.44,316.705 271.108,315.798 271.781,315.255C272.358,315.867 274.188,318.858 280.513,320.448C292.492,323.461 299.086,313.617 300.029,312.209C300.561,312.357 300.968,312.822 301.5,312.97C301.968,313.1 302.142,312.761 304.507,312.554C308.312,312.222 312.643,310.721 316.467,310.262C320.817,309.739 325.519,308.657 326.998,310.538C327.195,310.789 326.821,311.244 327.018,311.495Z" style="fill:rgb(215,223,192);"/>
        <path d="M251.533,244.902C260.689,244.237 279.525,241.597 294.516,240.811C300.64,240.489 304.986,238.088 307.797,241.254C310.175,243.933 307.789,248.088 307.592,248.543C304.526,255.619 298.923,254.164 280.473,256.288C270.365,257.452 270.366,257.317 269.49,257.431C254.017,259.439 205.722,263.813 202.385,262.836C201.824,262.672 200.503,262.286 198.954,256.381C198.227,253.612 197.081,250.534 198.696,249.979C199.574,249.677 220.332,248.194 224.524,247.695C237.335,246.171 237.326,246.265 251.533,244.902Z" style="fill:rgb(250,172,153);"/>
        <path d="M371.059,205.527C371.963,217.81 381.828,227.949 395.533,229.101C399.503,229.434 399.667,229.163 400.093,229.773C400.725,230.678 399.519,231.888 397.756,233.733C385.322,246.747 369.039,241.328 366.615,240.249C356.949,235.945 352.475,229.742 349.576,221.475C349.333,220.781 348.086,215.332 348.554,211.504C349.345,205.031 351.014,201.235 355.475,195.479C359.57,190.195 369.383,185.284 375.462,185.737C376.253,185.796 376.494,185.648 376.63,186.424C376.939,188.19 375.345,188.338 372.682,194.575C372.047,196.063 371.39,198.52 371.238,199.454C370.855,201.799 371.033,205.041 371.059,205.527Z" style="fill:rgb(251,200,85);"/>
        <path d="M503.091,297.276C503.639,297.649 503.952,298.307 504.5,298.681C504.783,298.874 505.171,298.823 505.5,298.917C506.79,299.284 507.273,299.746 507.393,299.792C507.682,299.903 508.011,299.863 508.31,299.944C508.999,300.131 508.958,300.227 516.412,303.683C519.822,305.264 519.685,305.503 521.567,306.38C527.991,309.371 538.485,317.983 540.145,319.823C546.811,327.213 546.95,327.46 549.928,332.23C552.359,336.122 553.246,336.262 552.273,337.262C551.687,337.865 551.551,337.519 548.527,337.24C538.58,336.323 537.925,335.682 533.538,335.19C526.848,334.439 518.965,333.316 507.52,332.278C488.92,330.592 487.078,331.122 481.5,330.326C479.517,330.044 479.519,330.207 477.523,330.099C446.289,328.408 446.075,328.841 444.494,328.664C441.744,328.355 441.719,328.621 441.5,328.524C440.948,328.279 440.924,327.352 440.372,327.108C442.856,325.239 443.06,325.474 445.063,323.114C445.297,322.838 445.998,321.058 448.419,321.752C453.36,323.168 453.36,323.164 458.484,323.669C459.527,323.771 464.61,324.272 471.55,322.707C474.583,322.023 475.003,321.563 477.089,323.879C485.366,333.068 499.462,327.35 505.427,319.445C505.847,318.889 509.352,315.281 508.269,308.544C507.504,303.783 503.916,300.223 503.338,299.65C501.939,298.263 502.964,297.628 503.091,297.276Z" style="fill:rgb(213,233,217);"/>
        <path d="M334.178,276.504C334.597,279.232 334.567,285.183 341.887,296.279C345.077,301.115 337.575,299.079 330.449,304.437C328.862,305.631 328.276,306.958 328.088,307.27C326.935,309.176 327.113,310.465 327.018,311.495C326.821,311.244 327.195,310.789 326.998,310.538C325.519,308.657 320.817,309.739 316.467,310.262C312.643,310.721 308.312,312.222 304.507,312.554C302.142,312.761 301.968,313.1 301.5,312.97C300.968,312.822 300.561,312.357 300.029,312.209C303.344,304.556 302.111,298.92 298.51,293.492C296.758,290.851 291.948,287.772 289.587,287.217C288.77,287.025 284.829,286.373 284.661,286.245C283.844,285.626 284.462,284.646 284.535,284.53C284.815,284.087 289.164,282.37 293.225,278.31C293.96,278.723 293.646,279.83 296.498,279.411C300.251,278.859 308.319,279.075 313.49,278.42C322.664,277.259 328.701,277.368 331.474,277.233C333.982,277.111 334.05,276.552 334.178,276.504Z" style="fill:rgb(237,219,171);"/>
        <path d="M472.476,284.874C472.355,285.13 472.021,285.244 471.9,285.5C471.755,285.807 471.559,286.195 471.708,286.5C471.895,286.883 472.471,286.919 472.751,287.24C472.901,287.412 472.81,287.468 474.293,289.639C475.706,291.706 476.889,296.084 477.077,297.562C477.422,300.267 477.44,300.263 477.457,300.499C477.483,300.832 477.221,301.214 477.394,301.5C477.711,302.023 478.472,302.168 478.789,302.691C476.707,305.087 473.941,310.494 473.677,315.512C473.556,317.803 473.859,318.39 471.634,318.969C459.137,322.221 448.139,319.135 447.255,316.604C447.204,316.457 446.853,306.274 439.654,300.328C437.812,298.807 435.742,298.85 437.815,293.626C438.318,292.358 440.54,286.756 447.772,279.784C450.317,277.33 450.754,279.227 456.587,281.229C456.963,281.358 465.418,284.583 472.476,284.874Z" style="fill:rgb(228,197,150);"/>
        <path d="M245.85,220.397C246.342,221.98 251.37,238.17 250.642,240.55C250.445,241.194 250.151,242.154 242.517,242.714C235.246,243.247 234.809,242.819 233.622,241.387C230.454,237.567 230.088,237.931 226.75,234.278C226.651,234.171 217.465,223.788 215.454,221.54C213.324,219.159 210.872,216.003 210.489,215.509C209.038,213.643 208.197,213.026 210.731,210.765C221.998,200.711 235.223,197.211 237.286,197.981C238.737,198.523 240.467,203.829 241.404,206.53C243.947,213.859 245.525,219.278 245.85,220.397Z" style="fill:rgb(251,165,153);"/>
        <path d="M461.529,440.082C450.222,439.454 424.798,438.447 415.483,437.994C374.289,435.991 335.069,437.253 333.403,436.953C333.244,436.924 331.871,436.678 331.955,435.552C332.007,434.848 332.38,434.206 332.611,433.539C332.844,432.865 333.19,432.158 334.545,431.81C335.543,431.554 399.566,431.272 420.501,432.485C431.005,433.093 430.998,432.944 441.502,433.464C475.054,435.126 485.603,436.249 494.484,436.764C497.19,436.921 537.211,440.962 539.472,441.591C541.543,442.168 541.545,444.025 540.817,444.774C539.767,445.853 536.83,445.248 536.524,445.222C535.081,445.1 521.401,443.944 518.488,443.602C512.575,442.908 461.66,440.087 461.529,440.082Z" style="fill:rgb(247,167,141);"/>
        <path d="M391.907,374.486C391.989,371.791 391.651,371.706 392.368,370.401C392.997,369.256 396.018,368.914 397.508,368.94C400.618,368.995 404.123,369.31 405.552,373.482C407.547,379.307 405.218,382.837 407.527,382.578C408.955,382.418 407.329,379.813 412.734,373.7C415.481,370.594 420.63,368.174 425.68,370.059C432.515,372.609 432.91,385.097 425.461,387.377C420.069,389.028 418.655,385.376 418.144,384.815C415.312,381.704 410.145,386.331 408.167,392.383C406.459,397.612 408.349,414.828 407.085,417.259C405.833,419.668 398.13,419.059 396.472,418.603C392.138,417.413 392.24,415.014 392.214,409.502C392.131,391.979 392.196,391.995 391.907,374.486Z" style="fill:rgb(99,69,55);"/>
        <path d="M215.67,294.697C215.654,294.715 206.669,303.03 211.307,314.579C212.917,318.588 216.058,320.938 216.609,321.35C220.344,324.143 225.671,324.77 226.505,324.869C226.076,325.117 225.929,325.717 225.5,325.965C225.211,326.132 224.832,325.994 224.5,326.026C221.88,326.282 221.885,326.305 221.5,326.287C218.99,326.164 219.009,326.439 216.5,326.49C213.137,326.559 192.367,326.983 174.518,328.698C174.188,328.73 170.761,329.059 170.375,328.64C169.616,327.815 170.789,325.931 170.914,325.73C181.08,309.392 190.417,304.773 195.313,302.16C207.619,295.593 210.378,295.186 212.439,294.362C214.409,293.575 214.331,293.29 214.5,293.361C215.046,293.589 215.124,294.468 215.67,294.697Z" style="fill:rgb(243,206,170);"/>
        <path d="M440.456,417.561C439.85,417.049 438.326,416.281 436.747,412.405C435.963,410.483 434.196,406.145 435.397,386.493C436.216,373.091 436.682,372.8 438.626,371.775C440.016,371.043 444.94,371.197 446.512,371.398C450.516,371.911 450.842,372.773 451.132,373.591C451.601,374.917 449.797,393.681 450.344,401.51C450.746,407.263 452.731,408.005 454.534,408.306C457.331,408.773 459.949,407.503 460.499,407.462C461.375,407.398 461.351,407.665 461.459,408.524C461.646,410.026 461.746,410.018 461.522,411.507C460.496,418.329 447.772,422.127 440.456,417.561Z" style="fill:rgb(95,72,58);"/>
        <path d="M210.587,418.189C209.802,417.92 208.572,417.671 207.301,416.836C202.132,413.441 201.859,406.984 201.487,403.501C200.824,397.294 201.77,380.607 202.238,375.473C202.622,371.273 204.592,370.754 211.525,371.04C217.941,371.305 217.015,373.742 216.958,377.506C216.732,392.59 215.612,404.478 218.426,406.578C222.053,409.283 224.687,406.493 226.37,406.947C227.765,407.323 227.248,411.325 227.225,411.457C227.155,411.858 227.124,416.46 216.481,418.398C213.342,418.969 211.633,418.393 210.587,418.189Z" style="fill:rgb(96,68,53);"/>
        <path d="M460.084,253.096C460.51,253.061 460.94,253.166 461.366,253.132C461.505,253.121 461.609,252.96 461.749,252.961C462.003,252.965 462.236,253.124 462.49,253.146C463.818,253.26 468.344,252.327 473.52,255.466C473.718,255.586 474.942,256.328 475.677,257.39C476.04,257.914 475.877,257.996 476.271,258.5C476.74,259.099 476.888,258.939 477.362,259.545C477.502,259.815 477.535,260.132 477.675,260.401C478.663,262.304 478.811,262.2 480.472,263.544C481.423,269.145 482.472,272.667 475.26,278.066C474.025,278.991 472.656,279.171 472.5,279.302C472.079,279.657 471.937,280.274 471.516,280.629C470.514,280.649 465.209,280.755 459.27,277.987C461.334,276.607 461.394,276.691 461.492,276.501C461.525,276.437 461.702,276.093 461.323,275.615C461.117,275.357 460.761,275.114 460.436,275.173C460.143,275.226 458.61,277.372 458.465,277.574C458.222,277.42 457.189,276.763 455.339,275.79C454.951,275.205 455.246,275.086 454.858,274.5C454.814,274.434 454.74,274.541 454.077,273.885C453.796,273.607 453.043,272.319 452.961,272.179C452.538,271.457 448.939,266.094 452.425,260.45C452.738,259.942 455.012,257.297 455.571,256.773C455.791,256.644 456.836,256.441 458.649,254.667C458.771,254.548 459.288,254.041 460.084,253.096Z" style="fill:rgb(248,219,187);"/>
        <path d="M227.448,244.065C225.377,244.299 220.482,244.851 201.466,246.1C200.406,246.169 198.11,246.431 197.324,245.679C195.912,244.327 196.294,231.566 202.728,220.631C204.713,217.258 206.235,215.378 207.345,215.999C208.666,216.738 208.135,217.266 219.614,230.405C226.544,238.337 226.654,238.216 229.326,240.677C229.464,240.805 230.767,242.005 230.822,242.491C230.947,243.587 230.688,243.639 229.606,243.847C229.436,243.88 229.446,243.863 227.448,244.065Z" style="fill:rgb(250,165,153);"/>
        <path d="M272.51,438.686C223.038,440.671 222.433,441.788 202.51,442.754C190.676,443.328 177.056,445.355 175.367,444.739C174.134,444.29 173.929,441.856 176.436,441.272C180.253,440.383 195.819,438.778 197.51,438.604C199.961,438.351 203.973,437.623 215.519,436.732C226.005,435.922 225.982,435.825 236.466,435.041C266.478,432.796 272.145,433.089 283.494,432.388C283.702,432.375 285.6,432.258 286.061,432.857C286.475,433.394 286.766,437.581 285.343,438.104C284.547,438.396 284.429,438.136 272.51,438.686Z" style="fill:rgb(248,171,146);"/>
        <path d="M214.222,310.57C214.16,310.185 214.028,309.814 213.965,309.429C213.259,305.069 214.973,299.424 219.54,296.553C228.252,291.077 238.456,295.679 239.523,305.498C240.686,316.189 231.24,321.08 225.508,320.432C216.11,319.371 214.252,310.658 214.222,310.57Z" style="fill:rgb(222,193,172);"/>
        <path d="M273.743,299.594C274.283,298.451 274.679,297.137 276.352,295.356C280.259,291.197 283.619,290.62 287.551,291.104C292.315,291.691 301.566,298.809 296.823,309.634C293.807,316.516 282.262,319.415 275.355,312.658C270.416,307.826 273.095,301.563 273.743,299.594Z" style="fill:rgb(219,189,166);"/>
        <path d="M365.052,300.416C369.953,282.646 388.545,286.314 390.582,289.439C393.326,293.649 390.441,298.675 387.38,303.421C382.479,311.021 374.192,312.079 370.316,309.852C364.449,306.481 364.703,304.034 365.052,300.416Z" style="fill:rgb(250,220,186);"/>
        <path d="M271.781,315.255C271.108,315.798 271.44,316.705 268.453,317.34C261.477,318.823 261.589,320.304 254.516,319.378C248.059,318.533 246.167,318.692 243.604,318.045C242.817,317.847 242.407,318.127 241.951,317.5C241.691,317.142 241.557,316.703 241.296,316.345C244.85,308.899 242.157,307.51 244.739,305.894C246.62,304.715 246.667,304.795 248.351,303.355C249.487,302.384 255.517,297.822 255.627,297.785C257.517,297.145 257.387,298.085 261.723,301.19C266.459,304.58 267.678,304.676 268.522,307.493C269.738,311.556 269.825,311.511 271.781,315.255Z" style="fill:rgb(218,171,126);"/>
        <path d="M421.077,266.162C421.225,265.945 421.333,265.701 421.482,265.483C421.985,264.749 425.027,261.536 430.599,263.157C433.964,264.137 434.349,265.571 434.805,266.341C438.663,272.845 442.619,274.492 444.253,275.766C444.373,275.86 445.089,276.418 444.739,277.615C444.547,278.27 441.6,280.006 441.305,280.18C438.483,281.842 433.714,282.208 432.52,282.113C422.442,281.314 420.874,275.189 420.582,274.462C421.183,273.897 421.305,274.075 421.916,273.5C421.983,273.437 422.321,273.119 422.595,272.57C423.063,271.632 423.241,267.748 423.143,267.606C423.014,267.421 422.651,267.713 422.466,267.584C421.923,267.204 421.62,266.542 421.077,266.162Z" style="fill:rgb(197,151,109);"/>
        <path d="M417.116,312.483C417.582,312.451 418.034,312.294 418.5,312.262C418.922,312.234 419.401,312.775 421.363,311.314C423.455,309.756 425.188,308.664 429.467,308.918C430.279,308.966 434.052,309.19 438.606,313.381C438.827,313.584 441.29,315.851 441.5,315.76C442.136,315.487 442.309,314.542 442.944,314.268C443.023,314.909 445.372,323.309 435.501,324.506C430.116,325.159 423.679,322.648 420.92,319.153C419.927,317.894 419.005,316.521 418.848,316.286C417.676,314.541 417.77,314.495 417.116,312.483Z" style="fill:rgb(245,216,176);"/>
        <path d="M504.628,313.564C504.116,314.567 504.155,314.565 503.633,315.579C503.224,316.373 500.999,320.691 495.33,323.062C485.901,327.006 482.449,323.749 481.338,322.945C483.075,318.138 482.816,318.077 482.969,317.662C484.337,313.948 490.857,307.838 495.505,307.56C501.079,307.227 502.426,311.993 503.5,312.848C503.848,313.126 504.279,313.286 504.628,313.564Z" style="fill:rgb(199,153,113);"/>
        <path d="M221.44,471.531C222.944,474.124 224.896,476.9 220.506,476.41C217.732,476.101 217.18,472.896 216.371,471.571C216.202,471.294 214.666,468.78 212.699,469.841C211.944,470.248 211.903,471.377 211.897,471.526C211.859,472.561 212.401,475.906 210.46,476.345C210.183,476.408 207.604,476.992 207.431,474.507C207.289,472.475 207.336,460.699 207.341,459.498C207.354,456.24 208.8,456.653 214.499,456.736C215.802,456.755 223.497,456.009 223.173,463.483C222.992,467.674 219.515,467.288 220.837,470.353C220.879,470.451 220.882,470.441 221.44,471.531ZM215.482,460.706C213.901,460.667 211.682,460.068 212.007,463.533C212.139,464.943 212.274,465.798 214.504,465.723C219.791,465.545 219.513,461.709 216.431,460.825C216.125,460.737 215.789,460.794 215.482,460.706Z" style="fill:rgb(100,72,58);"/>
        <path d="M384.198,471.65C383.257,470.068 383.353,469.643 381.501,469.618C381.332,469.616 380.093,469.599 379.593,470.546C379.291,471.118 379.361,474.395 379.351,474.486C379.097,476.964 376.146,476.917 375.189,475.717C374.721,475.13 374.852,472.644 374.85,471.501C374.829,458.548 374.562,457.464 375.717,456.946C376.284,456.691 376.552,456.571 383.489,456.78C390.603,456.994 392.423,462.99 388.897,466.866C387.202,468.729 387.698,469.079 388.877,471.305C390.607,474.572 392.201,476.608 388.501,476.534C385.936,476.483 385.879,475.749 384.198,471.65ZM382.516,465.737C382.844,465.65 383.194,465.671 383.522,465.584C385.921,464.951 387.144,461.011 382.49,460.668C380.856,460.547 379.113,460.56 379.27,463.513C379.418,466.291 381.49,465.681 382.516,465.737Z" style="fill:rgb(96,69,56);"/>
        <path d="M504.628,313.564C504.279,313.286 503.848,313.126 503.5,312.848C502.426,311.993 501.079,307.227 495.505,307.56C490.857,307.838 484.337,313.948 482.969,317.662C482.816,318.077 483.075,318.138 481.338,322.945C481.097,322.745 480.798,322.623 480.557,322.422C477.145,319.59 476.388,313.81 480.305,308.365C487.843,297.888 497.984,301.003 499.385,301.733C505.954,305.157 505.055,310.785 504.628,313.564Z" style="fill:rgb(238,206,160);"/>
        <path d="M417.116,312.483C416.848,310.828 416.044,308.546 418.356,304.419C420.183,301.158 426.77,296.107 434.75,301.086C440.992,304.981 442.072,308.811 442.944,314.268C442.309,314.542 442.136,315.487 441.5,315.76C441.29,315.851 438.827,313.584 438.606,313.381C434.052,309.19 430.279,308.966 429.467,308.918C425.188,308.664 423.455,309.756 421.363,311.314C419.401,312.775 418.922,312.234 418.5,312.262C418.034,312.294 417.582,312.451 417.116,312.483Z" style="fill:rgb(186,140,100);"/>
        <path d="M250.512,465.57C250.253,465.575 250.252,464.986 249.992,464.991C249.056,465.008 251.1,474.9 249.282,476.201C248.896,476.478 245.826,477.445 245.548,474.496C245.534,474.352 245.264,458.9 245.841,457.671C246.325,456.638 248.915,456.297 250.473,457.529C250.881,457.851 252.071,459.881 254.678,463.371C256.357,465.619 257.298,468.105 257.659,468.264C258.222,468.513 259.13,467.645 259.158,467.43C259.241,466.801 258.724,466.818 258.842,459.507C258.845,459.293 258.876,457.402 259.745,456.982C260.043,456.838 263.092,456.039 263.223,458.527C263.224,458.543 263.222,474.368 263.214,474.479C263.083,476.277 261.942,476.542 260.5,476.492C258.579,476.424 257.978,476.458 253.178,468.703C253.027,468.46 253.048,468.452 251.408,465.598C251.11,465.589 250.811,465.579 250.512,465.57Z" style="fill:rgb(99,71,57);"/>
        <path d="M440.456,364.57C440.257,364.4 440,364.307 439.802,364.137C435.056,360.065 436.788,351.616 443.563,349.702C456.717,345.985 457.556,363.052 447.477,365.404C443.513,366.329 441.204,364.87 440.456,364.57Z" style="fill:rgb(103,187,179);"/>
        <path d="M210.508,365.088C209.748,364.995 202.147,364.813 203.085,356.446C203.256,354.917 205.323,351.326 206.499,350.498C208.789,348.885 210.324,348.897 210.544,348.877C220.312,348.004 221.269,357.501 217.89,361.794C215.164,365.257 212.124,365.029 210.508,365.088Z" style="fill:rgb(98,68,54);"/>
        <path d="M446.522,469.852C444.536,469.957 443.275,469.698 443.208,472.491C443.156,474.689 443.579,474.817 442.843,475.731C441.758,477.08 438.86,477.021 438.751,474.485C438.539,469.537 438.709,460.702 438.732,459.504C438.796,456.146 440.19,456.716 444.497,456.748C446.27,456.761 452.589,455.912 454.126,461.606C454.557,463.201 454.449,467.104 451.565,468.61C449.232,469.829 449.152,469.585 446.522,469.852ZM446.442,466.048C446.816,465.916 447.224,465.894 447.598,465.762C449.912,464.941 451.01,460.753 445.501,460.686C444.339,460.672 444.207,460.568 443.507,461.504C443.22,461.887 443.23,463.342 443.231,463.503C443.253,466.578 444.819,466.075 446.442,466.048Z" style="fill:rgb(101,72,58);"/>
        <path d="M332.042,473.496C332.062,469.417 332.073,458.93 332.159,458.437C332.577,456.069 335.763,456.608 336.522,457.484C337.224,458.294 336.462,463.347 337.756,464.081C338.558,464.536 343.084,464.394 343.446,464.312C345.386,463.869 344.647,460.067 344.813,458.539C345.084,456.045 349.014,456.127 349.296,458.525C349.323,458.755 349.366,474.042 349.322,474.484C349.074,476.964 346.224,476.922 345.208,475.704C344.622,475.002 344.877,471.314 344.815,470.463C344.802,470.277 344.701,468.872 343.484,468.558C342.878,468.402 338.823,468.387 338.491,468.45C336.462,468.838 336.932,472.126 336.905,473.505C336.884,474.589 337.041,476.42 334.5,476.509C331.379,476.618 332.069,473.727 332.042,473.496Z" style="fill:rgb(100,71,58);"/>
        <path d="M493.571,279.516C497.893,281.641 497.963,281.514 498.28,281.786C499.461,282.797 499.277,283.236 499.468,283.515C498.786,286.975 499.191,286.995 499.07,290.524C499.008,292.346 498.813,292.322 498.819,292.479C498.823,292.603 499.014,292.674 499.009,292.798C499,293.002 498.761,293.165 498.782,293.368C498.8,293.54 498.832,293.52 499.458,295.423C499.126,295.466 498.84,295.705 498.508,295.748C498.139,295.797 496.66,295.527 496.501,295.498C493.794,295.004 490.539,295.233 488.504,295.226C485.874,295.218 485.463,294.445 483.984,291.262C481.324,285.541 481.537,285.23 481.846,284.78C482.373,284.01 482.572,284.328 484.583,283.798C487.736,282.968 490.73,281.087 491.577,280.615C493.412,279.592 493.413,279.605 493.571,279.516Z" style="fill:rgb(190,142,101);"/>
        <path d="M473.513,476.453C472.895,474.817 472.845,474.838 472.846,474.687C472.849,474.216 472.929,474.244 473.299,473.407C473.67,472.57 473.525,472.531 473.891,471.678C476.327,466.003 476.34,466.014 476.543,465.517C479.112,459.221 479.19,457.069 481.535,456.831C485.139,456.465 485.518,458.364 486.334,460.566C489.324,468.637 491.618,473.881 491.746,474.436C492.512,477.75 487.917,476.599 487.346,475.622C486.968,474.973 486.732,474.247 486.343,473.605C485.696,472.538 483.961,472.484 480.501,472.572C477.452,472.649 477.745,474.703 476.728,475.724C475.682,476.775 473.819,476.444 473.513,476.453ZM483.916,466.375L483.412,464.536C483.147,463.086 483.708,462.525 482.536,462.403C481.598,462.306 481.499,462.432 481.273,463.338C480.993,464.468 481.067,464.461 480.776,465.601C480.661,466.047 479.001,469.085 482.531,468.793C485.151,468.576 483.922,466.483 483.916,466.375Z" style="fill:rgb(103,74,60);"/>
        <path d="M366.104,460.657C371.446,475.024 372.206,475.298 371.227,476.166C370.65,476.677 367.738,476.785 366.899,475.261C366.422,474.394 366.324,472.446 363.5,472.459C359.297,472.477 358.353,472.418 357.383,474.443C357.3,474.616 356.86,476.453 354.5,476.532C352.18,476.61 352.382,475.562 353.221,473.393C353.713,472.12 359.135,458.111 359.587,457.567C360.584,456.367 363.79,456.642 364.595,457.401C364.867,457.658 365.251,458.486 365.298,458.586C365.767,459.599 365.631,459.636 366.104,460.657ZM363.776,466.414C363.083,463.901 363.203,463.871 363.11,463.665C362.051,461.308 361.04,463.548 360.969,463.705C360.909,463.838 361.059,463.995 361.032,464.139C361,464.311 360.852,464.444 360.8,464.612C360.729,464.842 360.043,467.055 360.068,467.532C360.164,469.336 362.346,468.972 362.572,468.934C363.784,468.732 364.081,468.774 364.168,467.545C364.197,467.147 363.748,466.812 363.776,466.414Z" style="fill:rgb(99,71,58);"/>
        <path d="M323.504,461.491C321.541,460.818 321.588,460.518 319.505,460.608C319.324,460.616 317.681,460.686 317.391,461.425C315.599,465.995 327.156,462.923 328.269,469.546C330.019,479.955 311.273,477.722 312.141,472.408C312.569,469.787 316.029,471.675 316.325,471.837C319.926,473.802 323.159,472.609 323.41,471.47C324.393,467.005 312.021,470.42 312.1,462.495C312.16,456.501 319.624,455.473 324.616,457.158C328.824,458.578 327.341,462.713 324.39,461.856C324.084,461.767 323.811,461.58 323.504,461.491Z" style="fill:rgb(98,70,56);"/>
        <path d="M278.349,299.405C278.384,299.361 279.422,297.5 281.524,296.55C290.225,292.622 296.423,304.56 289.84,309.93C284.915,313.948 277.415,310.648 277.109,304.519C276.948,301.308 278.291,299.53 278.349,299.405Z" style="fill:rgb(96,67,54);"/>
        <path d="M237.5,460.694C235.451,460.667 232.772,460.41 232.324,461.38C230.824,464.632 234.176,464.697 234.493,464.703C235.631,464.724 239.128,464.415 239.633,465.404C241.225,468.525 237.804,468.537 237.501,468.538C235.994,468.543 236.018,468.462 234.5,468.467C234.352,468.468 232.148,468.152 232.03,470.472C231.897,473.074 234.427,472.78 234.488,472.781C237.036,472.852 240.092,472.635 240.745,473.092C242.186,474.103 242.138,476.322 239.506,476.563C239.22,476.589 229.563,476.612 228.553,476.337C226.907,475.889 227.355,475.167 227.378,462.499C227.384,459.517 226.858,456.871 229.516,456.769C229.677,456.762 238.919,456.742 239.474,456.786C241.92,456.979 242.827,460.549 238.506,460.685C238.171,460.695 237.835,460.684 237.5,460.694Z" style="fill:rgb(99,72,58);"/>
        <path d="M394.753,473.502C394.746,466.997 394.708,467.01 394.735,460.502C394.747,457.648 394.66,456.771 397.504,456.76C398.222,456.757 404.103,456.734 406.486,456.801C406.759,456.809 409.369,456.883 408.558,459.521C408.034,461.227 404.251,460.742 401.501,460.73C401.211,460.729 398.287,460.716 399.281,463.597C399.847,465.237 404.178,464.528 405.475,464.693C405.723,464.724 407.843,464.994 407.099,467.36C406.623,468.878 402.587,468.511 401.502,468.546C397.795,468.665 399.411,472.019 399.703,472.274C400.597,473.053 405.324,472.702 406.484,472.797C409.795,473.068 409.104,476.202 407.529,476.6C407.16,476.693 404.739,476.645 404.496,476.64C396.655,476.483 396.015,476.914 395.102,475.778C394.626,475.184 394.845,475.105 394.753,473.502Z" style="fill:rgb(99,71,58);"/>
        <path d="M226.493,314.866C224.884,314.595 224.85,314.768 223.643,314.195C223.489,314.122 222.491,313.648 221.826,313.097C215.161,307.57 221.682,297.158 229.608,300.236C234.035,301.956 235.617,307.952 232.67,311.631C229.955,315.022 227.538,314.738 226.493,314.866Z" style="fill:rgb(96,68,54);"/>
        <path d="M417.602,197.799C417.35,197.896 414.455,199.007 414.455,199.007C414.299,199.026 413.144,199.17 413.137,197.549C413.128,195.221 414.565,194.188 411.524,190.48C410.445,189.163 410.158,189.286 410.149,188.484C410.123,186.022 414.92,189.344 418.066,183.115C418.185,182.879 418.271,182.626 418.391,182.39C418.49,182.194 418.521,181.911 418.72,181.82C418.924,181.726 419.161,181.964 419.383,181.933C419.708,181.888 420.075,181.37 420.308,181.6C420.54,181.83 419.24,182.247 421.489,185.508C423.358,188.218 429.231,186.416 427.262,189.34C427.171,189.475 427.08,189.365 425.847,190.8C422.42,194.787 427.429,200.377 422.465,198.608C422.172,198.503 421.888,198.373 421.597,198.262C419.042,197.285 418.977,197.665 417.602,197.799Z" style="fill:rgb(249,194,72);"/>
        <path d="M318.632,193.8C318.466,193.883 316.886,194.668 316.475,194.645C314.129,194.513 317.519,190.819 314.365,186.595C313.42,185.331 310.803,183.652 314.372,183.063C318.384,182.4 318.368,181.929 320.393,178.39C320.734,177.794 320.75,177.703 321.426,177.754C322.593,177.844 322.142,178.389 322.563,179.467C324.701,184.949 330.091,181.821 329.961,184.53C329.949,184.787 329.899,184.774 328.031,187.098C325.444,190.317 328.144,193.443 326.47,194.425C325.954,194.728 324.024,193.312 322.589,193.036C320.857,192.701 319.495,193.479 318.632,193.8Z" style="fill:rgb(250,198,75);"/>
        <path d="M497.907,473.504C497.908,473.18 497.918,469.852 497.874,469.46C497.587,466.899 492.112,459.607 491.71,458.433C491.113,456.69 493.314,456.767 493.51,456.773C496.54,456.878 497.184,459.353 497.78,460.331C499.61,463.332 499.635,463.534 500.493,463.464C501.639,463.37 501.297,462.884 501.914,461.796C504.963,456.419 505.582,456.888 506.519,456.781C510.355,456.342 508.45,459.175 508.309,459.385C505.789,463.134 504.508,465.63 504.111,466.259C501.684,470.111 502.87,470.584 502.61,474.509C502.557,475.321 502.137,476.448 500.504,476.56C497.368,476.775 497.922,473.808 497.907,473.504Z" style="fill:rgb(100,71,58);"/>
        <path d="M277.101,473.505C277.079,473.907 277.663,476.672 274.506,476.419C272.208,476.235 272.489,474.006 272.485,473.5C272.396,463.529 272.874,461.31 271.432,460.659C270.805,460.376 267.265,460.625 266.616,459.435C266.54,459.297 265.635,456.854 268.518,456.756C268.93,456.742 280.071,456.75 280.487,456.765C283.878,456.885 283.194,459.908 281.44,460.257C278.653,460.812 277.423,459.723 277.125,462.455C277.028,463.34 277.094,472.621 277.101,473.505Z" style="fill:rgb(103,75,61);"/>
        <path d="M470.399,476.249C468.449,476.488 468.465,476.484 466.5,476.505C459.674,476.581 458.817,476.695 458.071,475.902C457.167,474.941 457.606,474.726 457.621,461.502C457.623,460.049 457.012,456.945 459.519,456.778C462.334,456.591 462.164,458.765 462.181,459.51C462.312,465.018 462.032,465 462.151,470.512C462.213,473.362 464.976,472.753 466.498,472.763C467.163,472.767 467.828,472.763 468.493,472.773C468.725,472.776 470.795,472.807 471.16,473.913C471.23,474.126 470.823,474.239 470.761,474.454C470.65,474.836 470.738,475.253 470.659,475.643C470.616,475.858 470.443,476.034 470.399,476.249Z" style="fill:rgb(95,66,53);"/>
        <path d="M303.565,216.664C303.796,216.99 304.472,216.715 304.703,217.041C304.979,217.431 305.087,218.058 304.841,218.467C304.614,218.844 297.828,221.257 293.231,227.268C288.781,233.087 291.36,237.26 287.561,237.841C287.237,237.891 284.232,238.35 283.479,237.518C282.343,236.262 285.368,231.675 286.333,229.376C289.156,222.649 296.711,220.067 303.565,216.664Z" style="fill:rgb(207,155,120);"/>
        <path d="M472.476,284.874C476.078,284.885 476.529,284.66 478.352,287.591C480.111,290.419 483.045,297.504 482.27,299.382C482.034,299.955 478.818,302.665 478.789,302.691C478.472,302.168 477.711,302.023 477.394,301.5C477.221,301.214 477.483,300.832 477.457,300.499C477.44,300.263 477.422,300.267 477.077,297.562C476.889,296.084 475.706,291.706 474.293,289.639C472.81,287.468 472.901,287.412 472.751,287.24C472.471,286.919 471.895,286.883 471.708,286.5C471.559,286.195 471.755,285.807 471.9,285.5C472.021,285.244 472.355,285.13 472.476,284.874Z" style="fill:rgb(203,162,118);"/>
        <path d="M501.568,242.189C501.625,242.208 506.375,242.926 507.592,248.481C508.654,253.327 505.026,255.914 503.508,256.511C503.271,256.604 503.017,256.649 502.78,256.742C502.583,256.266 502.059,255.976 501.862,255.5C501.732,255.185 501.878,254.817 501.845,254.478C501.484,250.724 500.917,248.873 500.772,248.401C500.676,248.087 499.602,244.581 499.653,244.446C499.766,244.143 500.291,244.222 500.5,243.975C500.949,243.446 501.119,242.718 501.568,242.189Z" style="fill:rgb(142,99,75);"/>
        <path d="M448.786,230.236C448.298,230.629 447.987,231.211 447.5,231.604C447.366,231.711 447.252,231.512 445.664,232.712C443.193,234.579 443.145,234.509 440.281,237.269C439.9,237.637 439.915,237.687 437.496,238.502C437.358,238.11 437.074,237.78 436.936,237.388C436.708,236.74 436.488,233.792 437.793,231.678C440.564,227.188 445.333,226.242 448.377,229.62C448.542,229.803 448.621,230.053 448.786,230.236Z" style="fill:rgb(150,106,78);"/>
        <path d="M240.527,291.1C241.245,291.156 248.712,291.73 249.406,292.597C250.168,293.549 248.994,294.675 248.863,294.8C244.625,298.864 244.738,298.979 244.323,299.275C242.595,300.51 242.536,299.347 241.377,297.581C239.163,294.209 236.566,293.292 236.957,291.738C237.09,291.209 238.271,291.063 238.398,291.047C238.567,291.026 238.555,291.051 240.527,291.1Z" style="fill:rgb(236,212,163);"/>
        <path d="M465.04,263.877C463.123,260.976 460.559,258.899 462.266,257.294C465.487,254.264 475.965,258.11 471.407,262.401C469.762,263.95 469.521,263.528 467.443,264.381C467.128,264.413 466.86,264.656 466.545,264.688C465.117,264.831 465.255,263.993 465.04,263.877Z" style="fill:rgb(102,74,60);"/>
        <path d="M349.499,146.972C349.57,146.974 350.385,147.001 350.385,147.001C350.544,147.15 351.285,149.006 351.322,149.484C351.423,150.766 351.052,158.442 351.624,159.367C352.006,159.984 352.219,159.785 352.62,160.399C354.893,163.878 351.823,166.668 348.539,165.448C347.447,165.043 345.816,162.219 347.947,159.938C348.065,159.812 349.071,158.735 349.097,158.125C349.105,157.929 348.872,157.784 348.856,157.589C348.804,156.952 348.919,156.958 349.005,149.597C349.017,148.562 349.085,148.587 349.069,148.5C348.983,148.005 348.622,147.585 348.536,147.091L349.499,146.972Z" style="fill:rgb(246,205,116);"/>
        <path d="M297.484,462.941C297.543,462.956 300.945,462.934 301.386,466.515C302.203,473.152 291.646,473.069 292.652,466.526C293.118,463.499 296.032,463.094 296.44,463.037C296.786,462.989 297.138,462.989 297.484,462.941Z" style="fill:rgb(240,147,123);"/>
        <path d="M419.08,467.518C419.146,467.16 419.089,466.786 419.155,466.427C420.061,461.512 427.984,462.208 427.815,467.511C427.663,472.302 420.376,472.928 419.229,468.581C419.138,468.235 419.171,467.864 419.08,467.518Z" style="fill:rgb(215,131,107);"/>
        <path d="M345.145,172.566C345.192,172.2 344.748,170.758 346.31,169.29C346.447,169.161 347.249,168.407 348.432,168.277C351.502,167.939 353.225,169.184 353.566,169.431C355.018,170.48 356.145,176.334 349.492,175.588C345.392,175.128 345.431,173.198 345.145,172.566Z" style="fill:rgb(252,198,85);"/>
        <path d="M263.445,305.596C263.205,307.005 263.249,307.296 262.585,307.595C259.045,309.185 256.961,308.704 256.479,308.593C254.96,308.242 254.787,308.182 254.644,308.133C254.491,308.08 254.419,307.881 254.266,307.828C253.727,307.942 253.187,308.056 252.648,308.17C250.984,308.079 250.986,308.124 250.851,308.071C250.708,308.016 249.976,307.411 249.927,307.318C249.823,307.12 249.482,305.632 249.509,305.568C249.932,304.552 252.085,304.226 259.489,304.644C263.294,304.859 263.113,305.466 263.445,305.596Z" style="fill:rgb(177,130,101);"/>
        <path d="M477.362,259.545C477.467,259.211 477.349,258.832 477.454,258.498C477.769,257.497 481.098,254.237 483.76,257.28C485.238,258.969 484.953,261.466 482.508,262.52C481.461,262.971 481.51,263.022 480.472,263.544C478.811,262.2 478.663,262.304 477.675,260.401C477.535,260.132 477.502,259.815 477.362,259.545Z" style="fill:rgb(105,76,61);"/>
        <path d="M460.084,253.096C459.288,254.041 458.771,254.548 458.649,254.667C456.836,256.441 455.791,256.644 455.571,256.773C455.375,256.634 454.64,256.618 453.615,255.385C450.785,251.98 456.073,246.788 458.876,250.214C458.949,250.303 458.902,250.313 459.521,251.496C459.664,251.769 459.939,251.969 460.041,252.259C460.134,252.523 459.991,252.832 460.084,253.096Z" style="fill:rgb(105,75,58);"/>
        <path d="M268.419,290.187C270.317,289.891 270.335,289.619 271.274,289.996C272.418,290.454 271.748,292.372 271.68,292.568C271.575,292.869 270.909,294.778 270.088,296.216C269.633,297.014 268.561,296.855 268.42,296.834C268.171,296.797 268.179,296.766 265.84,295.028C261.576,291.861 267.147,290.6 268.419,290.187Z" style="fill:rgb(232,208,150);"/>
        <path d="M362.126,290.227C361.539,296.035 361.793,296.842 358.612,297.684C358.332,297.758 358.023,297.713 357.753,297.819C357.581,297.887 357.512,298.124 357.338,298.187C357.338,298.187 355.69,298.532 355.547,298.562C355.785,298.135 355.554,298.075 355.79,297.651C356.059,297.168 356.222,297.374 356.233,297.332C356.312,297.032 356.111,296.718 356.12,296.408C356.128,296.088 356.229,295.777 356.284,295.461C356.977,291.502 357.016,290.554 360.501,290.552C361.744,290.552 361.836,290.285 362.126,290.227Z" style="fill:rgb(200,151,138);"/>
        <path d="M499.468,283.515C501.141,283.831 501.137,283.806 501.275,283.856C501.389,283.897 501.262,284.044 502.444,284.812C502.789,285.037 503.172,285.199 503.518,285.424C503.321,285.696 502.716,285.291 502.519,285.564C502.318,285.844 502.658,286.243 502.679,286.588C502.987,291.558 502.099,292.088 500.837,293.838C500.215,294.699 500.149,294.629 499.458,295.423C498.832,293.52 498.8,293.54 498.782,293.368C498.761,293.165 499,293.002 499.009,292.798C499.014,292.674 498.823,292.603 498.819,292.479C498.813,292.322 499.008,292.346 499.07,290.524C499.191,286.995 498.786,286.975 499.468,283.515Z" style="fill:rgb(243,204,161);"/>
        <path d="M421.077,266.162C421.62,266.542 421.923,267.204 422.466,267.584C422.651,267.713 423.014,267.421 423.143,267.606C423.241,267.748 423.063,271.632 422.595,272.57C422.321,273.119 421.983,273.437 421.916,273.5C421.305,274.075 421.183,273.897 420.582,274.462C419.49,270.863 419.309,269.629 421.077,266.162Z" style="fill:rgb(228,185,143);"/>
        <path d="M464.41,268.345C464.995,268.416 465.58,268.487 466.165,268.558C466.224,268.818 465.734,269.006 465.794,269.266C465.844,269.485 465.969,270.033 467.811,271.219C468.528,271.681 468.685,271.671 468.612,272.537C468.452,274.428 460.994,272.084 463.847,268.864C464.016,268.673 464.241,268.536 464.41,268.345Z" style="fill:rgb(127,97,80);"/>
        <path d="M465.04,263.877C465.255,263.993 465.117,264.831 466.545,264.688C466.86,264.656 467.128,264.413 467.443,264.381C467.268,264.84 466.696,265.071 466.521,265.53C466.399,265.85 466.629,266.211 466.614,266.553C466.614,266.553 466.201,268.397 466.165,268.558C465.58,268.487 464.995,268.416 464.41,268.345C464.495,266.074 464.62,266.103 465.04,263.877Z" style="fill:rgb(178,149,126);"/>
        <path d="M458.465,277.574C458.61,277.372 460.143,275.226 460.436,275.173C460.761,275.114 461.117,275.357 461.323,275.615C461.702,276.093 461.525,276.437 461.492,276.501C461.394,276.691 461.334,276.607 459.27,277.987L458.465,277.574Z" style="fill:rgb(221,183,147);"/>
        <path d="M314.862,216.427C314.955,216.798 315.173,217.129 315.266,217.5C315.339,217.79 315.654,218.391 315.355,218.392C314.724,218.393 314.524,217.597 314.5,217.501C314.351,216.906 315.011,217.022 314.862,216.427Z" style="fill:rgb(100,70,57);"/>
    </g>
</svg>
