<?xml version="1.0" encoding="UTF-8" standalone="no"?>
<!DOCTYPE svg PUBLIC "-//W3C//DTD SVG 1.1//EN" "http://www.w3.org/Graphics/SVG/1.1/DTD/svg11.dtd">
<svg width="100%" height="100%" viewBox="0 0 261 249" version="1.1" xmlns="http://www.w3.org/2000/svg" xmlns:xlink="http://www.w3.org/1999/xlink" xml:space="preserve" xmlns:serif="http://www.serif.com/" style="fill-rule:evenodd;clip-rule:evenodd;stroke-linejoin:round;stroke-miterlimit:2;">
    <g transform="matrix(1.5,0,0,1.5,-1030,-367)">
        <path d="M835.928,353.719C837.632,351.807 838.27,351.471 839.884,347.664C840.642,345.877 840.532,345.517 842.452,345.204C844.111,344.933 846.414,344.743 848.905,341.811C853.003,336.986 852.146,329.322 846.288,325.86C842.67,323.721 838.36,324.823 836.596,325.707C835.111,326.451 835.065,327.089 833.597,326.301C833.172,326.073 829.794,322.965 823.507,321.47C818.996,320.397 814.137,321.705 813.552,321.378C812.526,320.803 809.259,313.585 801.634,315.941C799.056,316.738 794.196,318.56 793.649,324.515C793.082,330.701 798.175,333.433 798.337,333.624C799.421,334.906 798.088,335.122 798.097,340.489C798.101,343.024 796.319,341.581 793.536,341.845C787.32,342.436 783.899,352.124 792.344,356.824C794.085,357.793 797.242,358.133 798.562,358.084C799.563,358.046 799.757,357.776 800.266,358.635C800.569,359.148 799.415,361.223 798.623,361.668C796.994,362.584 793.618,363.11 791.788,362.06C790.011,361.041 788.77,358.786 788.584,358.448C788.15,357.659 786.287,354.689 785.641,353.414C782.095,346.409 772.251,347.106 772.904,360.492C772.983,362.118 773.097,362.09 773.592,364.479C771.044,364.729 771.054,364.616 768.498,364.469C768.211,364.453 766.08,364.33 765.081,365.591C764.888,365.833 765.303,366.276 765.11,366.519C765.034,365.896 765.083,360.783 759.72,357.158C757.014,355.329 754.131,355.435 753.97,355.062C753.89,354.876 754.168,354.707 754.26,354.526C754.402,354.245 754.43,353.877 754.674,353.678C754.898,353.496 755.128,353.886 757.774,351.83C766.884,344.749 764.934,338.6 766.698,336.654C766.989,336.333 773.102,332.427 770.799,326.385C769.77,323.686 770.438,323.588 772.066,321.193C773.087,319.692 778.334,313.129 773.844,309.1C769.961,305.616 762.137,310.054 759.496,311.493C756.5,313.125 753.011,317.199 751.532,320.515C749.957,324.048 750.321,324.959 746.5,325.503C744.203,325.83 736.473,326.791 735.47,326.653C733.808,326.424 734.361,325.676 732.011,318.669C731.376,316.773 726.338,299.479 723.472,297.541C719.85,295.093 706.034,302.548 701.532,309.522C701.104,310.185 696.385,315.969 695.338,325.486C695.273,326.076 695.041,331.237 695.086,331.559C695.115,331.761 696.711,336.931 696.855,337.397C698.049,341.264 699.39,342.407 700.437,344.537C701.684,347.072 706.221,353.717 715.778,356.053C716.371,356.198 716.979,356.271 717.572,356.411C721.593,357.358 717.542,358.119 717.404,358.123C717.203,358.129 717.018,357.985 716.817,357.987C716.704,357.988 716.72,358.057 715.416,358.198C714.925,358.251 712.341,358.531 709.863,360.893C707.607,363.043 706.776,365.589 706.767,365.61C706.094,365.853 706.184,365.993 705.5,366.241C705.008,366.419 704.985,366.246 704.5,366.43C704.212,366.54 703.985,366.77 703.716,366.92C703.247,367.181 703.093,366.842 697.598,369.688C693.184,371.974 692.188,373.936 688.87,376.687C688.627,376.188 687.942,376 687.699,375.5C687.555,375.202 687.834,374.843 687.812,374.513C687.798,374.291 687.551,373.989 687.53,372.5C687.431,365.46 687.585,365.465 687.589,284.498C687.589,281.23 686.461,260.295 707.59,249.692C707.647,249.663 711.791,247.969 713.506,247.524C718.949,246.111 722.712,246.807 737.502,246.621C739.079,246.601 777.987,246.747 781.507,246.76C792.542,246.801 792.539,246.766 793.499,246.775C794.142,246.782 801.485,246.855 801.537,246.851C808.791,246.266 808.784,246.925 819.509,246.737C826.614,246.612 841.684,245.576 853.328,262.606C858.91,270.771 858.709,281.775 858.677,283.5C858.518,292.193 858.731,304.425 858.63,327.5C858.549,345.695 858.844,372.154 858.469,373.502C858.311,374.072 858.146,373.998 858.031,374.583C857.928,375.109 858.156,375.098 858.053,375.623C857.683,375.367 857.438,374.956 857.067,374.699C856.529,374.326 856.403,374.573 855.907,374.143C852.583,371.264 852.881,370.861 849.285,368.998C849.108,368.906 847.645,368.3 847.566,368.282C847.249,368.209 846.892,368.335 846.595,368.203C846.271,368.06 846.14,367.598 845.799,367.5C845.138,367.31 844.595,367.557 844.5,367.6C843.753,367.941 844.038,368.302 843.292,368.642C841.703,366.474 840.991,366.308 842.157,364.325C842.962,362.957 843.113,361.732 843.142,361.494C843.282,360.357 843.104,360.377 842.799,359.277C842.612,359.096 842.604,358.777 842.416,358.596C842.177,358.366 841.832,358.279 841.562,358.086C841.22,357.84 840.977,357.441 840.587,357.281C840.323,357.172 839.996,357.442 839.732,357.333C839.421,356.998 838.59,355.9 837.626,355.339C836.307,354.572 836.286,354.641 836.191,354.55C835.855,354.229 836.27,354.045 835.928,353.719Z" style="fill:rgb(253,245,232);"/>
        <path d="M706.767,365.61C706.776,365.589 707.607,363.043 709.863,360.893C712.341,358.531 714.925,358.251 715.416,358.198C716.72,358.057 716.704,357.988 716.817,357.987C717.018,357.985 717.203,358.129 717.404,358.123C717.542,358.119 721.593,357.358 717.572,356.411C716.979,356.271 716.371,356.198 715.778,356.053C706.221,353.717 701.684,347.072 700.437,344.537C699.39,342.407 698.049,341.264 696.855,337.397C696.711,336.931 695.115,331.761 695.086,331.559C695.041,331.237 695.273,326.076 695.338,325.486C696.385,315.969 701.104,310.185 701.532,309.522C706.034,302.548 719.85,295.093 723.472,297.541C726.338,299.479 731.376,316.773 732.011,318.669C734.361,325.676 733.808,326.424 735.47,326.653C736.473,326.791 744.203,325.83 746.5,325.503C750.321,324.959 749.957,324.048 751.532,320.515C753.011,317.199 756.5,313.125 759.496,311.493C762.137,310.054 769.961,305.616 773.844,309.1C778.334,313.129 773.087,319.692 772.066,321.193C770.438,323.588 769.77,323.686 770.799,326.385C773.102,332.427 766.989,336.333 766.698,336.654C764.934,338.6 766.884,344.749 757.774,351.83C755.128,353.886 754.898,353.496 754.674,353.678C754.43,353.877 754.402,354.245 754.26,354.526C754.168,354.707 753.89,354.876 753.97,355.062C754.131,355.435 757.014,355.329 759.72,357.158C765.083,360.783 765.034,365.896 765.11,366.519C764.707,370.725 764.455,371.586 761.115,375.043C760.468,375.473 758.791,377.01 755.489,377.37C752.289,377.72 749.534,376.556 747.497,376.63C738.522,376.955 734.804,378.35 728.482,377.81C726.953,377.68 727.013,377.456 725.516,377.263C725.163,377.217 724.802,377.349 724.45,377.304C718.677,380.549 717.817,379.899 715.46,379.724C713.501,379.133 712.615,379.069 710.155,376.931C710.138,376.916 707.976,375.271 707.072,372.653C705.654,368.541 706.731,365.779 706.767,365.61Z" style="fill:rgb(99,71,57);"/>
        <path d="M835.928,353.719C835.709,353.916 835.75,354.311 835.531,354.508C835.441,354.589 835.353,354.413 834.17,355.158C831.65,356.744 828.712,357.507 828.61,357.619C827.915,358.378 828.274,358.501 828.677,359.446C830.485,363.677 830.762,364.305 832.502,364.307C833.169,364.308 833.834,364.236 834.5,364.217C834.741,364.21 834.738,364.243 837.508,364.399C839.282,364.498 839.522,363.312 839.863,362.959C840.483,361.876 840.482,361.89 840.897,360.7C841.067,360.211 841.106,360.182 841.144,360.153C841.899,359.589 842.034,359.85 842.799,359.277C843.104,360.377 843.282,360.357 843.142,361.494C843.113,361.732 842.962,362.957 842.157,364.325C840.991,366.308 841.703,366.474 843.292,368.642C843.399,368.863 845.02,371.256 844.803,374.507C844.51,378.897 840.562,381.858 839.489,382.482C829.784,388.132 825.974,382.845 824.4,381.628C822.051,379.811 821.538,382.675 811.472,381.136C811.13,381.259 810.735,381.166 810.393,381.289C809.683,381.543 809.808,381.701 809.256,382.208C807.229,384.067 806.76,384.368 806.518,384.523C796.264,391.095 789.282,384.476 787.439,383.605C784.198,382.073 781.545,386.504 776.452,387.199C772.85,387.69 771.382,386.644 769.73,384.368C769.637,384.084 769.458,383.833 769.366,383.55C768.471,380.793 769.946,377.746 772.46,376.428C772.732,376.285 773.03,376.192 773.301,376.046C776.916,374.106 777.864,374.883 777.837,373.492C777.83,373.132 776.85,371.707 776.184,370.695C774.657,368.373 774.617,367.553 773.592,364.479C773.097,362.09 772.983,362.118 772.904,360.492C772.251,347.106 782.095,346.409 785.641,353.414C786.287,354.689 788.15,357.659 788.584,358.448C788.77,358.786 790.011,361.041 791.788,362.06C793.618,363.11 796.994,362.584 798.623,361.668C799.415,361.223 800.569,359.148 800.266,358.635C799.757,357.776 799.563,358.046 798.562,358.084C797.242,358.133 794.085,357.793 792.344,356.824C783.899,352.124 787.32,342.436 793.536,341.845C796.319,341.581 798.101,343.024 798.097,340.489C798.088,335.122 799.421,334.906 798.337,333.624C798.175,333.433 793.082,330.701 793.649,324.515C794.196,318.56 799.056,316.738 801.634,315.941C809.259,313.585 812.526,320.803 813.552,321.378C814.137,321.705 818.996,320.397 823.507,321.47C829.794,322.965 833.172,326.073 833.597,326.301C835.065,327.089 835.111,326.451 836.596,325.707C838.36,324.823 842.67,323.721 846.288,325.86C852.146,329.322 853.003,336.986 848.905,341.811C846.414,344.743 844.111,344.933 842.452,345.204C840.532,345.517 840.642,345.877 839.884,347.664C838.27,351.471 837.632,351.807 835.928,353.719Z" style="fill:rgb(99,74,59);"/>
        <path d="M843.292,368.642C844.038,368.302 843.753,367.941 844.5,367.6C844.595,367.557 845.138,367.31 845.799,367.5C846.14,367.598 846.271,368.06 846.595,368.203C846.892,368.335 847.249,368.209 847.566,368.282C847.645,368.3 849.108,368.906 849.285,368.998C852.881,370.861 852.583,371.264 855.907,374.143C856.403,374.573 856.529,374.326 857.067,374.699C857.438,374.956 857.683,375.367 858.053,375.623C858.272,376.48 859.578,377.297 856.612,386.539C856.557,386.709 856.549,386.692 855.763,388.611C855.115,388.658 855.14,388.423 854.5,388.469C854.427,388.474 854.117,388.496 853.631,388.765C853.493,388.84 853.453,389.034 853.321,389.119C853.067,389.282 852.765,389.355 852.496,389.492C851.54,389.976 850.083,391.501 843.46,392.02C836.896,392.535 824.081,388.511 816.505,388.692C806.95,388.919 805.211,389.852 801.527,390.619C798.817,391.183 787.098,391.598 785.518,391.97C785.162,392.054 784.86,392.313 784.5,392.38C784.231,392.43 784.232,392.401 780.493,392.683C776.895,392.892 776.906,392.925 775.476,393.088C771.38,393.555 771.337,393.071 763.512,394.567C746.61,397.8 738.106,400.584 735.465,401.368C728.237,403.512 726.279,406.225 723.417,407.423C722.103,407.973 722.396,408.304 721.411,409.865C708.976,409.131 704.937,405.935 698.449,400.551C697.176,399.494 694.523,396.125 694.204,395.721C689.911,390.27 689.217,385.761 689.004,384.74C689.507,384.702 689.996,385.02 690.5,384.981C690.864,384.953 691.16,384.665 691.505,384.547C692.816,384.097 699.834,382.861 700.562,382.733C702.141,384.517 702.111,384.553 702.333,384.645C704.055,385.359 712.426,385.684 716.446,385.062C721.477,384.283 731.578,380.887 737.5,381.549C738.716,381.685 739.81,382.428 740.575,382.298C740.856,382.251 741.07,381.998 741.349,381.939C742.867,381.622 744.744,383.029 753.468,382.986C755.98,382.973 755.962,383.154 758.465,382.971C761.706,382.733 765.36,384.228 765.563,384.289C766.58,384.599 766.545,384.625 767.5,385.041C768.362,385.417 768.419,385.399 768.5,385.375C769.284,385.138 768.932,384.609 769.73,384.368C771.382,386.644 772.85,387.69 776.452,387.199C781.545,386.504 784.198,382.073 787.439,383.605C789.282,384.476 796.264,391.095 806.518,384.523C806.76,384.368 807.229,384.067 809.256,382.208C809.808,381.701 809.683,381.543 810.393,381.289C810.735,381.166 811.13,381.259 811.472,381.136C821.538,382.675 822.051,379.811 824.4,381.628C825.974,382.845 829.784,388.132 839.489,382.482C840.562,381.858 844.51,378.897 844.803,374.507C845.02,371.256 843.399,368.863 843.292,368.642Z" style="fill:rgb(248,229,205);"/>
        <path d="M780.493,392.683C782.496,393.112 782.472,393.2 784.513,393.351C787.489,393.571 787.401,394.036 789.548,394.293C789.782,394.321 789.781,394.291 792.484,394.608C797.307,395.173 797.202,395.671 802.493,396.535C807.465,397.347 807.412,397.55 813.493,398.532C815.093,398.79 821.379,399.805 832.542,405.411C833.64,405.962 833.559,406.071 835.549,407.723C834.776,407.991 830.555,409.455 825.518,409.75C822.801,409.909 822.819,409.696 791.501,409.751C770.165,409.759 748.829,409.766 727.493,409.773C724.449,409.777 724.468,409.899 721.411,409.865C722.396,408.304 722.103,407.973 723.417,407.423C726.279,406.225 728.237,403.512 735.465,401.368C738.106,400.584 746.61,397.8 763.512,394.567C771.337,393.071 771.38,393.555 775.476,393.088C776.906,392.925 776.895,392.892 780.493,392.683Z" style="fill:rgb(232,224,180);"/>
        <path d="M777.552,259.837C764.398,261.378 761.63,263.416 761.495,263.495C759.994,263.701 759.996,263.614 758.5,263.809C750.168,266.311 746.295,268.629 744.467,269.36C742.214,270.261 742.438,268.665 742.462,268.491C742.555,267.833 742.802,267.975 746.575,265.62C748.114,264.659 758.407,260.126 762.426,259.201C770.42,257.359 778.586,255.431 788.496,255.617C795.018,255.74 795.007,255.766 801.475,256.703C802.528,256.855 808.981,257.79 814.419,259.725C824.041,263.149 827.444,265.578 830.622,267.367C830.789,267.461 832.613,268.488 831.564,269.571C830.504,270.664 830.525,268.89 820.485,265.303C819.767,265.114 819.048,264.925 818.329,264.736C817.157,264.144 812.421,261.753 802.548,260.224C792.782,258.713 792.7,259.352 792.546,259.575C792.521,259.612 792.524,262.265 792.524,262.499C792.538,274.483 792.067,277.953 793.66,279.313C794.723,280.22 799.169,279.85 796.272,283.303C795.087,284.715 795.139,284.738 794.135,286.274C791.234,290.713 791.028,303.191 804.489,305.573C806.078,305.855 813.299,305.294 807.961,310.951C806.131,312.892 806.094,312.952 803.51,313.528C801.481,313.981 801.536,314.102 799.562,314.705C796.447,315.657 794.205,318.157 788.504,316.486C782.751,314.799 781.189,312.833 780.182,311.807C779.682,311.297 773.779,305.844 774.471,297.497C775.554,284.42 787.206,281.092 787.262,281.065C788.753,280.35 788.793,278.748 789.561,277.544C789.683,277.352 789.9,277.226 790.001,277.022C790.342,276.329 790.169,276.285 790.326,263.494C790.37,259.88 790.601,259.854 790.45,259.58C790.229,259.179 788.677,259.127 788.518,259.121C783.971,258.969 778.423,259.72 777.552,259.837Z" style="fill:rgb(83,74,67);"/>
        <path d="M810.733,322.472C810.956,322.81 810.877,323.291 811.1,323.629C812.718,326.08 821.062,320.111 831.71,328.247C834.786,330.597 835.355,330.012 836.826,328.783C840.717,325.53 849.27,327.63 848.783,335.518C848.407,341.609 841.527,343.67 840.759,342.232C840.747,342.21 840.877,340.783 840.898,340.718C840.931,340.617 840.967,340.649 841.835,339.78C842.099,339.636 844.05,339.019 844.155,336.485C844.273,333.633 842.363,331.463 839.512,331.435C839.174,331.432 838.838,331.511 838.5,331.507C838.254,331.714 837.844,331.641 837.597,331.848C837.54,331.896 837.24,333.212 837.254,333.501C837.286,334.188 838.664,337.058 838.516,340.498C838.407,343.026 838.771,343.058 838.315,344.465C836.508,350.037 834.232,352.155 830.693,353.937C830.53,354.018 829.766,354.403 828.543,354.686C826.507,355.157 826.477,355.034 824.47,354.398C824.583,354.197 824.513,353.925 824.626,353.723C825.053,352.958 827.963,350.376 827.814,347.484C827.802,347.255 827.736,347.268 827.438,344.643C827.832,344.342 828.253,344.076 828.648,343.774C830.519,342.344 829.069,340.605 828.557,340.394C826.934,339.723 825.456,341.08 824.998,341.37C823.603,339.97 822.853,339.342 822.656,339.177C820.922,337.724 820.418,338.193 819.529,338.056C819.175,338.002 818.851,337.803 818.495,337.768C817.461,337.667 817.527,338.159 816.5,338.129C816.5,338.129 814.429,337.551 814.249,337.501C813.928,337.214 813.938,336.66 813.616,336.373C812.574,335.445 810.376,336.393 810.52,338.497C810.539,338.775 810.729,339.023 810.748,339.3C811,339.732 811.251,340.163 811.503,340.594L812.466,340.4C811.934,340.789 811.868,340.638 811.345,341.02C811.278,341.069 811.044,341.241 810.615,341.753C808.015,344.857 809.13,347.552 809.345,348.564C809.649,349.992 809.442,350.215 809.461,350.551C808.74,350.523 808.454,351.348 805.669,349.269C799.267,344.492 800.516,339.096 800.89,336.597C801.387,333.277 802.642,332.308 803.23,331.317C803.664,330.584 803.407,330.135 806.558,327.561C807.665,326.657 808.052,326.909 808.364,325.524C808.436,325.203 808.387,324.864 808.459,324.543C808.782,324.354 809.202,324.38 809.525,324.19C809.643,324.12 809.617,323.928 809.696,323.815C810.186,323.119 810.239,323.174 810.733,322.472Z" style="fill:rgb(198,152,111);"/>
        <path d="M733.494,356.178C729.554,356.048 722.154,356.166 713.448,352.623C708.404,350.57 705.299,346.952 704.738,346.299C704.569,346.102 702.872,344.125 702.979,343.585C703.12,342.868 704.406,342.796 704.547,342.788C715.533,342.17 715.497,341.914 726.476,341.135C731.94,340.748 737.857,339.729 746.483,339.123C750.096,338.869 762.694,337.007 763.227,337.667C763.35,337.819 763.383,346.303 753.472,351.449C753.241,351.569 751.907,352.659 746.454,354.361C745.536,354.648 739.989,355.765 739.55,355.826C736.538,356.245 736.543,356.107 733.494,356.178Z" style="fill:rgb(249,159,149);"/>
        <path d="M855.763,388.611C855.15,389.995 851.573,399.997 839.4,406.306C837.569,407.255 837.54,407.132 835.549,407.723C833.559,406.071 833.64,405.962 832.542,405.411C821.379,399.805 815.093,398.79 813.493,398.532C807.412,397.55 807.465,397.347 802.493,396.535C797.202,395.671 797.307,395.173 792.484,394.608C789.781,394.291 789.782,394.321 789.548,394.293C787.401,394.036 787.489,393.571 784.513,393.351C782.472,393.2 782.496,393.112 780.493,392.683C784.232,392.401 784.231,392.43 784.5,392.38C784.86,392.313 785.162,392.054 785.518,391.97C787.098,391.598 798.817,391.183 801.527,390.619C805.211,389.852 806.95,388.919 816.505,388.692C824.081,388.511 836.896,392.535 843.46,392.02C850.083,391.501 851.54,389.976 852.496,389.492C852.765,389.355 853.067,389.282 853.321,389.119C853.453,389.034 853.493,388.84 853.631,388.765C854.117,388.496 854.427,388.474 854.5,388.469C855.14,388.423 855.115,388.658 855.763,388.611Z" style="fill:rgb(205,227,210);"/>
        <path d="M751.5,327.506C753.462,327.4 757.83,327.095 758.473,327.087C762.845,327.037 763.109,326.597 764.48,326.333C769.04,325.454 769.436,329.58 767.444,332.47C765.315,335.56 763.111,335.091 762.429,335.103C759.757,335.152 730.099,338.482 727.509,338.662C715.496,339.495 715.534,339.795 703.501,340.422C701.834,340.509 701.622,340.745 700.575,339.446C700.282,339.081 697.96,334.213 699.173,333.137C700.01,332.394 716.082,331.3 718.557,330.964C726.363,329.905 728.021,330.293 731.514,329.655C734.621,329.088 737.07,329.552 751.5,327.506Z" style="fill:rgb(249,163,148);"/>
        <path d="M776.119,354.267C776.189,354.132 777.106,351.067 780.46,351.672C780.734,351.721 781.874,351.926 783.272,353.706C783.431,353.908 783.504,354.169 783.668,354.367C783.796,354.521 784.028,354.577 784.134,354.746C784.322,355.045 784.101,355.133 786.095,358.7C787.001,360.32 786.873,360.386 788.058,361.836C789.031,363.027 789.01,363.047 790.301,363.872C794.335,366.448 798.129,364.139 801.492,364.328C804.069,364.473 806.942,364.567 809.259,366.766C814.999,372.214 807.346,386.425 795.477,384.667C791.218,384.037 788.836,380.488 786.501,380.51C783.323,380.541 774.712,388.065 771.977,383.27C771.831,383.015 771.007,380.06 773.555,378.569C775.36,377.513 775.395,377.628 777.382,377.007C779.947,376.205 779.923,376.156 782.576,375.766C784.601,375.329 784.652,375.485 786.445,374.43C786.696,374.249 787.111,374.456 787.362,374.274C787.56,374.131 787.413,373.725 787.614,373.586C787.855,373.419 788.256,373.669 788.491,373.492C788.737,373.307 788.685,372.897 788.863,372.645C788.889,372.608 789.477,372.332 789.507,371.502C789.525,371.017 789.324,370.542 789.341,370.057C790.081,369.439 790.528,369.499 790.158,368.614C789.772,367.689 788.09,366.849 787.441,365.583C787.193,365.098 787.015,365.206 784.019,359.703C780.345,352.954 778.992,354.073 778.621,354.541C778.413,354.802 778.648,355.265 778.44,355.527C778.286,355.367 778.059,355.289 777.904,355.128C777.734,354.951 777.699,354.634 777.478,354.527C777.062,354.326 776.534,354.467 776.119,354.267Z" style="fill:rgb(125,195,187);"/>
        <path d="M773.592,364.479C774.617,367.553 774.657,368.373 776.184,370.695C776.85,371.707 777.83,373.132 777.837,373.492C777.864,374.883 776.916,374.106 773.301,376.046C773.03,376.192 772.732,376.285 772.46,376.428C769.946,377.746 768.471,380.793 769.366,383.55C769.458,383.833 769.637,384.084 769.73,384.368C768.932,384.609 769.284,385.138 768.5,385.375C768.419,385.399 768.362,385.417 767.5,385.041C766.545,384.625 766.58,384.599 765.563,384.289C765.36,384.228 761.706,382.733 758.465,382.971C755.962,383.154 755.98,382.973 753.468,382.986C744.744,383.029 742.867,381.622 741.349,381.939C741.07,381.998 740.856,382.251 740.575,382.298C739.81,382.428 738.716,381.685 737.5,381.549C731.578,380.887 721.477,384.283 716.446,385.062C712.426,385.684 704.055,385.359 702.333,384.645C702.111,384.553 702.141,384.517 700.562,382.733C706.898,382.113 706.9,382.202 707.449,382.137C711.145,381.701 711.136,381.149 711.466,381.092C711.667,381.057 712.048,381.426 713.5,381.055C715.019,380.668 715.305,379.829 715.46,379.724C717.817,379.899 718.677,380.549 724.45,377.304C724.802,377.349 725.163,377.217 725.516,377.263C727.013,377.456 726.953,377.68 728.482,377.81C734.804,378.35 738.522,376.955 747.497,376.63C749.534,376.556 752.289,377.72 755.489,377.37C758.791,377.01 760.468,375.473 761.115,375.043C764.455,371.586 764.707,370.725 765.11,366.519C765.303,366.276 764.888,365.833 765.081,365.591C766.08,364.33 768.211,364.453 768.498,364.469C771.054,364.616 771.044,364.729 773.592,364.479Z" style="fill:rgb(238,229,200);"/>
        <path d="M789.897,293.479C790.483,297.946 791.521,302.088 798.608,306.289C799.068,306.561 801.837,307.604 803.437,307.792C805.259,308.007 805.292,307.889 805.891,308.216C808.566,309.675 797.35,314.111 793.494,314.327C789.389,314.556 783.567,312.992 780.499,308.501C780.239,308.12 780.053,307.66 779.687,307.379C779.473,307.215 779.038,307.487 778.887,307.264C778.805,307.143 779.312,307.045 778.567,305.466C778.132,304.543 775.433,298.821 777.998,292.728C778.039,292.63 778.146,292.703 778.64,291.569C781.771,284.371 791.727,281.753 792.517,282.47C794.147,283.947 789.927,284.311 789.897,293.479Z" style="fill:rgb(251,197,79);"/>
        <path d="M705.292,309.5C705.476,309.225 705.451,308.844 705.635,308.57C705.889,308.191 706.282,307.925 706.579,307.578C706.735,307.398 706.813,307.153 706.99,306.993C707.169,306.832 707.427,306.783 707.621,306.638C707.992,306.361 708.317,306.025 708.678,305.733C713.658,301.693 720.837,298.977 722.191,299.94C723.984,301.217 731.112,323.748 731.318,325.502C731.51,327.138 730.439,327.228 728.498,327.483C721.671,328.381 721.633,327.588 721.115,326.926C719.521,324.891 718.602,324.505 715.664,321.362C710.271,315.591 710.325,315.573 705.292,309.5Z" style="fill:rgb(250,162,151);"/>
        <path d="M821.406,357.915C821.455,357.994 821.615,357.938 821.665,358.017C821.991,358.535 822.133,359.164 822.5,359.654C822.762,360.005 823.231,360.156 823.514,360.49C823.697,360.705 823.726,361.015 823.863,361.262C824.753,362.866 824.9,362.808 825.186,364.598C825.42,366.059 825.34,366.083 825.592,366.5C825.817,366.872 826.26,367.1 826.428,367.5C826.549,367.787 826.287,368.148 826.408,368.436C825.724,369.347 825.669,369.284 825.054,370.239C821.949,375.056 823.307,377.307 822.208,378.246C821.259,379.057 814.195,379.086 813.57,379.014C813.458,379.001 813.427,378.827 813.322,378.786C813.007,378.665 812.531,378.818 812.341,378.54C812.141,378.248 812.63,377.774 812.43,377.482C813.7,373.843 815.08,368.916 810.862,365.085C805.853,360.536 802.551,363.229 802.323,361.59C802.31,361.498 802.653,360.227 802.892,359.752C803.843,357.859 803.941,357.923 805.453,356.454C807.441,354.522 807.562,353.675 810.353,354.861C815.468,357.035 815.459,357.139 821.406,357.915Z" style="fill:rgb(228,196,147);"/>
        <path d="M706.767,365.61C706.731,365.779 705.654,368.541 707.072,372.653C707.976,375.271 710.138,376.916 710.155,376.931C712.615,379.069 713.501,379.133 715.46,379.724C715.305,379.829 715.019,380.668 713.5,381.055C712.048,381.426 711.667,381.057 711.466,381.092C711.136,381.149 711.145,381.701 707.449,382.137C706.9,382.202 706.898,382.113 700.562,382.733C699.834,382.861 692.816,384.097 691.505,384.547C691.16,384.665 690.864,384.953 690.5,384.981C689.996,385.02 689.507,384.702 689.004,384.74C688.62,383.5 687.215,379.792 688.366,377.439C688.499,377.168 688.737,376.958 688.87,376.687C692.188,373.936 693.184,371.974 697.598,369.688C703.093,366.842 703.247,367.181 703.716,366.92C703.985,366.77 704.212,366.54 704.5,366.43C704.985,366.246 705.008,366.419 705.5,366.241C706.184,365.993 706.094,365.853 706.767,365.61Z" style="fill:rgb(249,214,182);"/>
        <path d="M814.249,337.501C814.429,337.551 816.5,338.129 816.5,338.129C817.527,338.159 817.461,337.667 818.495,337.768C818.851,337.803 819.175,338.002 819.529,338.056C820.418,338.193 820.922,337.724 822.656,339.177C822.853,339.342 823.603,339.97 824.998,341.37C825.603,343 825.299,343.23 826.67,344.284C826.894,344.456 827.214,344.471 827.438,344.643C827.736,347.268 827.802,347.255 827.814,347.484C827.963,350.376 825.053,352.958 824.626,353.723C824.513,353.925 824.583,354.197 824.47,354.398C823.269,354.612 818.448,356.25 811.362,351.716C811.124,351.563 810.856,351.457 810.629,351.288C810.376,351.099 810.467,351.018 810.201,350.85C809.861,350.636 809.813,350.773 809.461,350.551C809.442,350.215 809.649,349.992 809.345,348.564C809.13,347.552 808.015,344.857 810.615,341.753C811.044,341.241 811.278,341.069 811.345,341.02C811.868,340.638 811.934,340.789 812.466,340.4C813.816,339.315 814.244,339.565 814.345,338.413C814.371,338.109 814.223,337.806 814.249,337.501Z" style="fill:rgb(246,217,185);"/>
        <path d="M703.552,311.611C705.51,313.091 705.369,313.215 706.967,315.088C713.525,322.774 716.231,325.131 717.126,325.911C717.311,326.072 719.202,327.718 719.135,328.226C719.084,328.614 715.812,328.793 715.519,328.809C709.069,329.161 699.851,330.374 698.728,330.007C696.923,329.416 698.39,323.09 698.526,322.505C700.191,315.327 701.847,313.728 703.552,311.611Z" style="fill:rgb(250,162,151);"/>
        <path d="M725.182,366.562C725.285,367.584 726.615,373.287 720.348,376.165C713.907,379.122 706.154,372.107 710.504,364.502C713.378,359.477 722.277,359.082 724.803,365.392C724.955,365.773 725.03,366.182 725.182,366.562Z" style="fill:rgb(228,196,175);"/>
        <path d="M757.651,373.795C756.399,374.264 754.143,375.398 750.415,373.665C740.966,369.271 749.273,352.154 759.5,360.5C761.317,361.984 763.494,366.467 761.262,370.374C759.751,373.018 758.561,373.215 757.651,373.795Z" style="fill:rgb(225,192,172);"/>
        <path d="M758.5,263.809C759.996,263.614 759.994,263.701 761.495,263.495C761.213,275.239 761.298,275.46 761.67,276.425C763.174,280.33 765.199,279.689 766.629,280.058C769.886,280.898 765.909,284.018 765.603,285.526C765.23,287.366 766.811,291.458 764.507,291.34C762.77,291.25 761.603,288.498 758.33,290.172C755.666,291.536 753.861,292.423 754.292,289.467C754.791,286.046 755.214,285.689 752.832,283.169C752.626,282.952 750.17,280.795 753.41,280.095C755.993,279.537 756.836,280.176 758.858,275.664C759.305,274.665 759.057,274.393 759.248,265.536C759.28,264.05 758.622,264.09 758.5,263.809Z" style="fill:rgb(102,80,61);"/>
        <path d="M818.677,276.71L819.327,276.705C820.108,277.649 820.416,278.35 820.485,278.507C822.536,283.177 825.546,281.042 826.624,282.403C826.723,282.527 827.252,283.195 826.345,284.371C826.249,284.496 824.993,285.612 824.573,286.54C823.46,288.998 825.287,292.508 823.658,292.867C821.486,293.348 820.395,290.122 816.355,292.231C815.96,292.437 814.518,293.001 814.459,293C814.299,293 813.202,292.999 813.07,291.552C812.929,289.995 814.593,288.314 812.328,285.674C811.715,284.958 809.619,283.369 811.191,282.128C812.578,281.034 814.8,282.541 816.806,279.674C817.448,278.756 817.251,278.664 817.841,277.708C817.868,277.663 817.943,277.765 818.347,277.284C818.561,277.029 818.456,276.975 818.677,276.71Z" style="fill:rgb(105,81,58);"/>
        <path d="M792.284,374.405C792.425,374.139 792.529,373.855 792.67,373.588C796.806,365.757 804.933,368.425 806.129,370.722C808.128,374.564 802.745,385.968 793.553,380.431C792.024,379.511 791.799,377.738 791.764,377.463C791.579,376.003 791.85,376.031 792.284,374.405Z" style="fill:rgb(248,217,179);"/>
        <path d="M776.119,354.267C776.534,354.467 777.062,354.326 777.478,354.527C777.699,354.634 777.734,354.951 777.904,355.128C778.059,355.289 778.286,355.367 778.44,355.527C778.916,356.082 778.868,356.098 779.382,356.624C779.54,356.786 780.48,357.748 781.191,358.799C782.42,360.615 782.27,360.687 783.326,362.597C784.73,365.138 784.703,365.129 784.838,365.34C785.543,366.438 786.393,366.658 785.089,369.344C783.519,372.576 783.658,373.076 782.475,373.282C782.173,373.335 781.859,373.295 781.557,373.347C780.974,372.962 780.893,373.102 780.418,372.595C780.06,372.214 778.227,369.788 777.269,367.61C774.131,360.47 775.792,355.287 776.119,354.267Z" style="fill:rgb(131,202,194);"/>
        <path d="M791.473,345.464C791.525,345.436 793.098,343.961 795.523,344.339C797.833,344.698 797.965,344.711 799.306,346.627C799.536,346.956 800.967,349.002 802.572,350.422C804.388,352.028 805.83,352.373 803.973,353.949C802.31,355.359 800.839,355.384 799.495,355.423C791.618,355.649 790.347,351.258 790.09,350.772C791.566,349.818 792.225,350.189 792.289,348.504C792.335,347.309 791.677,346.511 791.673,346.5C791.551,346.17 791.594,345.794 791.473,345.464Z" style="fill:rgb(191,143,103);"/>
        <path d="M842.031,375.28C841.868,375.638 840.738,378.811 837.539,380.567C831.685,383.779 829.454,382.172 827.377,380.725C827.678,380.251 828.11,379.869 828.411,379.395C828.692,378.952 828.861,376.341 833.248,373.149C837.134,370.323 839.631,373.001 839.755,373.088C840.658,373.725 840.696,373.654 841.418,374.5C841.633,374.752 841.817,375.028 842.031,375.28Z" style="fill:rgb(195,145,103);"/>
        <path d="M842.031,375.28C841.817,375.028 841.633,374.752 841.418,374.5C840.696,373.654 840.658,373.725 839.755,373.088C839.631,373.001 837.134,370.323 833.248,373.149C828.861,376.341 828.692,378.952 828.411,379.395C828.11,379.869 827.678,380.251 827.377,380.725C826.437,379.682 826.42,379.705 826.361,379.599C822.649,372.877 834.642,363.032 840.545,369.456C842.657,371.754 842.171,373.753 842.031,375.28Z" style="fill:rgb(242,208,162);"/>
        <path d="M810.733,322.472C810.239,323.174 810.186,323.119 809.696,323.815C809.617,323.928 809.643,324.12 809.525,324.19C809.202,324.38 808.782,324.354 808.459,324.543L807.505,323.493C807.11,323.283 806.801,322.934 806.406,322.724C804.567,321.744 800.505,322.954 800.717,327.516C800.732,327.841 800.803,328.163 800.818,328.488C800.787,328.839 800.967,329.186 800.937,329.536C800.509,334.479 793.022,326.898 797.782,320.738C799.619,318.361 804.355,316.713 807.771,319.039C810.44,320.856 810.276,321.771 810.733,322.472Z" style="fill:rgb(230,196,153);"/>
        <path d="M835.928,353.719C836.27,354.045 835.855,354.229 836.191,354.55C836.286,354.641 836.307,354.572 837.626,355.339C838.59,355.9 839.421,356.998 839.732,357.333C839.64,357.522 838.77,357.844 838.683,359.486C838.649,360.128 838.697,361.378 838.711,361.405C838.991,361.986 839.583,362.378 839.863,362.959C839.522,363.312 839.282,364.498 837.508,364.399C834.738,364.243 834.741,364.21 834.5,364.217C833.834,364.236 833.169,364.308 832.502,364.307C830.762,364.305 830.485,363.677 828.677,359.446C828.274,358.501 827.915,358.378 828.61,357.619C828.712,357.507 831.65,356.744 834.17,355.158C835.353,354.413 835.441,354.589 835.531,354.508C835.75,354.311 835.709,353.916 835.928,353.719Z" style="fill:rgb(190,142,102);"/>
        <path d="M750.375,369.617C749.63,368.549 749.615,368.567 749.571,368.464C747.519,363.719 753.328,359.331 756.773,362.16C761.155,365.759 758.128,371.809 753.529,371.192C751.734,370.952 751.778,370.776 750.375,369.617Z" style="fill:rgb(94,67,54);"/>
        <path d="M728.905,369.28C728.865,368.978 728.465,368.804 728.425,368.502C728.297,367.54 728.773,367.712 732.138,365.082C734.682,363.093 735.656,361.765 738.335,363.72C742.183,366.528 742.937,366.495 743.435,368.515C744.116,371.276 744.213,371.248 744.172,371.49C744.145,371.656 743.844,371.566 743.686,371.626C743.312,371.77 742.977,372.16 742.58,372.101C741.883,371.997 738.583,369.695 736.532,369.313C730.791,368.245 729.108,369.244 728.905,369.28Z" style="fill:rgb(230,189,145);"/>
        <path d="M721.842,367.401C721.877,367.834 722.547,369.909 720.827,371.786C717.523,375.392 711.678,372.269 712.606,367.522C713.45,363.198 719.725,362.397 721.52,366.49C721.65,366.785 721.713,367.106 721.842,367.401Z" style="fill:rgb(91,64,51);"/>
        <path d="M778.44,355.527C778.648,355.265 778.413,354.802 778.621,354.541C778.992,354.073 780.345,352.954 784.019,359.703C787.015,365.206 787.193,365.098 787.441,365.583C788.09,366.849 789.772,367.689 790.158,368.614C790.528,369.499 790.081,369.439 789.341,370.057C789.09,370.099 788.67,369.786 787.425,370.375C787.211,370.477 787.058,370.685 786.844,370.786C786.617,371.248 785.697,371.027 785.47,371.489C785.47,371.489 786.25,373.295 786.318,373.452L786.445,374.43C784.652,375.485 784.601,375.329 782.576,375.766C782.399,375.364 782.757,374.85 782.58,374.447C782.558,374.397 782.429,374.822 781.921,374.277C781.565,373.894 781.911,373.728 781.557,373.347C781.859,373.295 782.173,373.335 782.475,373.282C783.658,373.076 783.519,372.576 785.089,369.344C786.393,366.658 785.543,366.438 784.838,365.34C784.703,365.129 784.73,365.138 783.326,362.597C782.27,360.687 782.42,360.615 781.191,358.799C780.48,357.748 779.54,356.786 779.382,356.624C778.868,356.098 778.916,356.082 778.44,355.527Z" style="fill:rgb(91,94,86);"/>
        <path d="M816.381,283.258C817.417,282.556 817.426,282.579 817.5,282.5C817.68,282.306 817.668,281.986 817.837,281.783C817.99,281.597 818.194,281.421 818.43,281.373C819.302,281.198 819.356,281.293 819.903,282.002C820.536,282.823 821.162,282.862 821.26,282.923C821.401,283.01 821.434,283.229 821.582,283.303C821.86,283.44 822.186,283.443 822.483,283.53C822.702,283.595 822.989,283.577 823.129,283.757C823.19,283.837 823.257,285.278 823.204,285.361C823.085,285.547 822.722,285.379 822.566,285.535C821.977,286.126 821.726,289.578 821.611,289.651C821.296,289.852 820.868,289.566 820.5,289.501C820.174,289.444 819.859,289.331 819.532,289.287C818.139,289.098 816.504,289.629 816.455,289.625C815.401,289.536 815.897,289.033 815.748,287.466C815.595,285.864 814.836,285.381 814.815,285.35C814.744,285.242 814.027,284.162 814.717,283.735C815.208,283.431 815.89,283.562 816.381,283.258Z" style="fill:rgb(248,191,65);"/>
        <path d="M760.522,287.16C760.01,287.381 759.965,286.982 759.449,287.205C758.805,287.482 759.089,287.882 758.417,288.066C758.073,288.161 757.689,287.961 757.387,287.77C756.572,287.256 757.224,285.07 756.249,283.594C756.022,283.251 755.151,282.664 756.612,281.68C756.854,281.517 757.192,281.543 757.435,281.382C757.595,281.277 757.614,281.027 757.768,280.915C758.001,280.745 758.359,280.771 758.559,280.563C758.743,280.372 758.647,280.008 758.828,279.813C758.996,279.633 759.271,279.579 759.514,279.537C760.366,279.391 760.402,279.521 760.83,280.066C760.983,280.262 761.756,281.047 761.79,281.06C761.916,281.11 762.066,280.916 762.187,280.978C762.356,281.064 762.364,281.339 762.527,281.437C762.788,281.594 763.138,281.55 763.399,281.706C763.754,281.919 764.244,282.117 764.338,282.52C764.533,283.359 763.314,283.133 763.216,286.439C763.162,288.258 762.288,287.614 760.522,287.16Z" style="fill:rgb(249,197,70);"/>
        <path d="M766.421,314.228C766.794,314.158 767.088,313.836 767.461,313.765C767.785,313.703 769.384,314.202 768.03,316.209C768.009,316.24 766.637,317.824 765.597,319.556C764.579,321.25 763.458,324.548 760.518,324.377C759.129,324.296 759.135,323.859 759.416,322.49C759.504,322.057 760.757,319.082 760.98,318.724C761.717,317.543 765.38,315.041 766.421,314.228Z" style="fill:rgb(251,249,244);"/>
        <path d="M838.5,331.507C838.838,331.511 839.174,331.432 839.512,331.435C842.363,331.463 844.273,333.633 844.155,336.485C844.05,339.019 842.099,339.636 841.835,339.78C841.592,339.224 840.784,339.056 840.541,338.5C840.4,338.177 840.85,337.833 840.829,337.481C840.79,336.813 840.525,336.178 840.366,335.529C839.951,333.828 839.552,334.049 839.275,333.5C839.121,333.195 839.175,332.818 839.051,332.5C838.914,332.147 838.637,331.86 838.5,331.507Z" style="fill:rgb(153,106,79);"/>
        <path d="M821.406,357.915C823.992,357.997 824.742,358.175 825.243,358.752C825.878,359.483 827.454,363.119 827.887,364.379C828.862,367.213 827.394,367.34 826.408,368.436C826.287,368.148 826.549,367.787 826.428,367.5C826.26,367.1 825.817,366.872 825.592,366.5C825.34,366.083 825.42,366.059 825.186,364.598C824.9,362.808 824.753,362.866 823.863,361.262C823.726,361.015 823.697,360.705 823.514,360.49C823.231,360.156 822.762,360.005 822.5,359.654C822.133,359.164 821.991,358.535 821.665,358.017C821.615,357.938 821.455,357.994 821.406,357.915Z" style="fill:rgb(196,152,106);"/>
        <path d="M818.329,264.736C819.048,264.925 819.767,265.114 820.485,265.303C820.401,265.96 820.076,265.842 819.991,266.5C819.981,266.577 820.113,266.541 820.211,267.442C820.249,267.792 820.209,268.146 820.209,268.498C820.208,269.059 820.196,275.477 820.184,275.51C820.013,275.969 819.498,276.246 819.327,276.705L818.677,276.71C818.509,276.251 818.004,275.968 817.836,275.509C817.75,275.274 817.871,268.144 817.882,267.504C817.914,265.651 818.502,265.846 818.603,265.414C818.659,265.177 818.273,264.973 818.329,264.736Z" style="fill:rgb(169,161,153);"/>
        <path d="M818.519,346.534C818.253,346.137 817.856,345.84 817.59,345.443C817.432,345.207 817.389,344.909 817.259,344.656C816.122,342.444 815.92,342.565 815.867,342.356C815.859,342.325 815.654,340.309 818.493,340.295C821.27,340.282 822.864,342.528 821.857,343.741C821.006,344.767 819.618,345.355 819.489,345.479C819.318,345.641 819.308,345.925 819.148,346.099C818.976,346.286 818.691,346.346 818.519,346.534Z" style="fill:rgb(83,63,52);"/>
        <path d="M775.666,270.444C775.651,269.957 775.487,270 775.471,269.502C775.469,269.424 775.459,269.098 775.606,268.537C775.792,267.83 776.068,267.977 776.292,267.296C776.512,266.63 775.883,262.754 776.809,261.5C777.091,261.118 777.54,260.882 777.822,260.5C777.99,260.998 777.874,261.01 778.04,261.5C778.369,262.471 778.48,262.414 778.5,262.5C778.568,262.794 778.396,266.967 778.506,267.496C778.57,267.801 778.75,268.075 778.813,268.38C779.064,269.592 778.656,270.565 778.655,270.578C778.146,270.627 778.229,270.858 777.717,270.907C777.584,270.919 776.791,270.996 776.049,270.828C775.873,270.788 775.842,270.484 775.666,270.444Z" style="fill:rgb(240,203,120);"/>
        <path d="M729.352,362.323C728.956,362.498 728.741,362.967 728.346,363.143C727.41,363.559 725.968,361.427 725.193,360.762C722.917,358.809 724.184,358.374 724.383,358.322C724.87,358.193 730.641,358.993 730.827,359.099C731.952,359.739 732.015,360.154 731.054,361.014C730.926,361.128 730.885,361.042 729.352,362.323Z" style="fill:rgb(247,229,195);"/>
        <path d="M807.505,323.493C807.038,323.871 806.967,324.61 806.5,324.988C806.385,325.082 805.73,324.839 804.659,325.807C804.138,326.278 804.124,326.229 803.522,326.554C801.038,327.895 801.229,328.155 800.818,328.488C800.803,328.163 800.732,327.841 800.717,327.516C800.505,322.954 804.567,321.744 806.406,322.724C806.801,322.934 807.11,323.283 807.505,323.493Z" style="fill:rgb(156,108,81);"/>
        <path d="M757.106,317.084C757.355,317.802 758.462,317.983 758.711,318.701C758.814,318.997 757.669,318.569 757.126,322.29C757.102,322.459 756.902,323.827 756.345,324.277C755.724,324.779 753.938,324.743 753.622,324.384C752.417,323.02 756.705,317.592 757.106,317.084Z" style="fill:rgb(212,147,118);"/>
        <path d="M775.613,272.602C777.217,272.841 777.206,272.834 778.793,273.203C778.996,273.487 779.094,273.373 779.29,273.648C779.332,273.706 779.617,274.104 779.687,274.452C780.322,277.613 775.152,277.538 774.528,275.488C774.109,274.118 774.986,273.316 775.613,272.602Z" style="fill:rgb(251,201,85);"/>
        <path d="M824.998,341.37C825.456,341.08 826.934,339.723 828.557,340.394C829.069,340.605 830.519,342.344 828.648,343.774C828.253,344.076 827.832,344.342 827.438,344.643C827.214,344.471 826.894,344.456 826.67,344.284C825.299,343.23 825.603,343 824.998,341.37Z" style="fill:rgb(98,75,62);"/>
        <path d="M780.344,330.028C780.765,330.135 781.226,329.904 781.646,330.011C782.945,330.341 783.615,333.464 781.45,334.211C780.647,334.488 778.576,333.257 778.76,331.571C778.891,330.382 779.333,330.671 780.344,330.028Z" style="fill:rgb(252,217,180);"/>
        <path d="M814.249,337.501C814.223,337.806 814.371,338.109 814.345,338.413C814.244,339.565 813.816,339.315 812.466,340.4L811.503,340.594L810.748,339.3C810.729,339.023 810.539,338.775 810.52,338.497C810.376,336.393 812.574,335.445 813.616,336.373C813.938,336.66 813.928,337.214 814.249,337.501Z" style="fill:rgb(86,62,48);"/>
        <path d="M839.732,357.333C839.996,357.442 840.323,357.172 840.587,357.281C840.977,357.441 841.22,357.84 841.562,358.086C841.832,358.279 842.177,358.366 842.416,358.596C842.604,358.777 842.612,359.096 842.799,359.277C842.034,359.85 841.899,359.589 841.144,360.153C841.106,360.182 841.067,360.211 840.897,360.7C840.482,361.89 840.483,361.876 839.863,362.959C839.583,362.378 838.991,361.986 838.711,361.405C838.697,361.378 838.649,360.128 838.683,359.486C838.77,357.844 839.64,357.522 839.732,357.333Z" style="fill:rgb(217,177,137);"/>
        <path d="M745.111,360.311C744.485,361.177 743.996,362.294 742.282,360.734C739.456,358.161 745.466,356.757 745.682,358.462C745.701,358.616 745.641,358.596 745.111,360.311Z" style="fill:rgb(239,213,185);"/>
        <path d="M786.844,370.786C787.058,370.685 787.211,370.477 787.425,370.375C788.67,369.786 789.09,370.099 789.341,370.057C789.324,370.542 789.525,371.017 789.507,371.502C789.477,372.332 788.889,372.608 788.863,372.645C788.685,372.897 788.737,373.307 788.491,373.492C788.256,373.669 787.855,373.419 787.614,373.586C787.413,373.725 787.56,374.131 787.362,374.274C787.111,374.456 786.696,374.249 786.445,374.43L786.318,373.452C786.524,372.095 786.502,372.111 786.844,370.786Z" style="fill:rgb(212,149,139);"/>
        <path d="M818.519,346.534C818.554,346.86 818.785,347.144 818.82,347.47C818.854,347.778 818.634,348.097 818.72,348.396C818.842,348.822 819.276,349.108 819.413,349.529C819.457,349.661 819.868,350.92 818.505,351.011C817.523,351.076 817.671,350.707 817.031,349.949C816.489,349.308 816.386,349.324 816.4,348.484C816.427,346.878 817.107,347.279 818.519,346.534Z" style="fill:rgb(135,110,89);"/>
        <path d="M791.473,345.464C791.594,345.794 791.551,346.17 791.673,346.5C791.677,346.511 792.335,347.309 792.289,348.504C792.225,350.189 791.566,349.818 790.09,350.772C789.965,350.147 789.324,349.185 790.595,346.566C790.996,345.739 791.148,345.872 791.473,345.464Z" style="fill:rgb(212,172,128);"/>
        <path d="M729.71,276.389C729.643,276.791 729.91,277.201 729.844,277.603C729.727,278.307 728.51,278.892 727.745,278.239C727.131,277.715 727.115,276.158 727.691,275.763C728.443,275.247 729.15,275.741 729.253,275.812C729.454,275.953 729.509,276.248 729.71,276.389Z" style="fill:rgb(170,108,81);"/>
        <path d="M775.666,270.444C775.842,270.484 775.873,270.788 776.049,270.828C776.791,270.996 777.584,270.919 777.717,270.907C778.229,270.858 778.146,270.627 778.655,270.578C778.361,272.471 778.315,272.458 778.337,272.622C778.37,272.866 778.76,272.959 778.793,273.203C777.206,272.834 777.217,272.841 775.613,272.602C775.63,271.882 775.648,271.163 775.666,270.444Z" style="fill:rgb(251,227,161);"/>
        <path d="M736.608,286.536C736.412,286.701 736.398,287.022 736.203,287.186C735.479,287.798 733.858,287.174 734.407,285.45C734.666,284.637 736.313,284.555 736.57,285.47C736.666,285.812 736.511,286.194 736.608,286.536Z" style="fill:rgb(251,232,218);"/>
        <path d="M786.844,370.786C786.502,372.111 786.524,372.095 786.318,373.452C786.25,373.295 785.47,371.489 785.47,371.489C785.697,371.027 786.617,371.248 786.844,370.786Z" style="fill:rgb(165,108,94);"/>
    </g>
</svg>
