<?xml version="1.0" encoding="UTF-8" standalone="no"?>
<!DOCTYPE svg PUBLIC "-//W3C//DTD SVG 1.1//EN" "http://www.w3.org/Graphics/SVG/1.1/DTD/svg11.dtd">
<svg width="100%" height="100%" viewBox="0 0 113 84" version="1.1" xmlns="http://www.w3.org/2000/svg" xmlns:xlink="http://www.w3.org/1999/xlink" xml:space="preserve" xmlns:serif="http://www.serif.com/" style="fill-rule:evenodd;clip-rule:evenodd;stroke-linejoin:round;stroke-miterlimit:2;">
    <g transform="matrix(1,0,0,1,-1184.62993,-1544.206983)">
        <g transform="matrix(1,0,0,1,1110,1456)">
            <path d="M94.829,153.717C97.407,149.488 102.388,141.232 99.543,130.488C96.835,120.264 100.352,119.903 98.346,109.533C97.89,107.175 97.683,106.454 95.379,107.113C91.941,108.097 90.762,113.682 86.578,112.241C80.404,110.116 86.287,104.539 88.181,99.388C90.596,92.822 91.052,93.028 91.214,92.444C91.619,90.985 88.64,87.467 92.524,88.346C92.849,88.42 93.158,88.558 93.487,88.609C95.709,88.959 101.993,86.776 108.878,93.113C117.976,101.488 116.35,110.011 118.686,111.146C119.895,111.734 137.334,111.325 138.477,111.605C139.485,111.852 139.244,112.158 139.316,112.658C139.342,112.834 139.701,113.828 139.771,115.494C140.055,122.269 138.979,124.121 137.707,125.662C136.548,127.065 135.772,128.02 132.422,129.199C127.998,130.757 114.356,131.137 114.376,118.5C114.383,114.112 115.115,112.753 115.159,112.472C115.414,110.839 113.847,110.322 113.325,111.309C112.309,113.233 112.215,116.056 112.201,116.479C111.973,123.34 112.976,126.588 118.225,129.931C125.17,134.354 134.071,131.091 134.25,131.009C143.029,127.029 142.006,119.674 141.958,115.492C141.92,112.236 141.321,111.809 142.171,111.017C143.468,109.806 148.917,111.768 150.282,111.166C150.862,110.911 154.112,106.101 159.504,106.413C168.046,106.908 170.121,115.97 171.523,119.49C173.619,124.759 174.594,124.575 175.104,125.687C176.003,127.646 170.96,129.358 168.532,129.167C166.349,128.995 166.088,125.714 165.743,124.435C163.041,114.442 159.649,113.778 156.429,114.027C153.902,114.222 154.244,115.283 155.242,117.611C158.748,125.789 153.509,131.196 159.202,139.689C159.7,140.432 166.846,151.465 168.4,153.581C170.649,156.642 176.506,149.267 181.484,148.41C187.137,147.436 188.027,151.043 186.778,152.693C184.831,155.264 183.198,152.678 179.331,155.24C169.408,161.815 168.71,161.702 166.589,162.706C144.479,173.168 124.934,172.716 109.433,169.806C107.921,169.522 99.78,167.218 97.554,166.363C86.836,162.25 86.923,162.085 84.421,160.637C80.395,158.308 79.125,159.284 77.505,159.202C74.591,159.055 73.241,155.499 76.618,153.781C80.781,151.661 86.837,155.934 89.638,157.146C92.494,158.382 93.042,156.132 94.829,153.717ZM120.478,136.596C115.669,134.934 115.584,135.402 115.488,135.417C112.396,135.895 105.885,144.582 103.993,147.797C103.665,148.354 100.353,154.521 99.862,155.65C98.375,159.07 96.914,160.454 100.508,161.473C106.1,163.058 106.074,163.138 106.571,163.23C113.873,164.57 117.177,166.043 132.5,165.503C138.707,165.284 151.859,163.052 161.677,158.866C161.877,158.781 163.529,158.076 163.149,156.586C162.984,155.937 160.27,150.948 160.128,150.721C154.863,142.312 150.423,142.729 142.492,137.51C139.633,135.629 139.699,134.312 136.51,135.528C129.162,138.329 125.637,137.544 120.478,136.596Z" style="fill:rgb(138,163,148);"/>
        </g>
    </g>
</svg>
